<?xml version="1.0" standalone="no"?>
<!DOCTYPE svg PUBLIC "-//W3C//DTD SVG 20010904//EN"
 "http://www.w3.org/TR/2001/REC-SVG-20010904/DTD/svg10.dtd">
<svg version="1.0" xmlns="http://www.w3.org/2000/svg"
 width="1920.000000pt" height="1920.000000pt" viewBox="0 0 1920.000000 1920.000000"
 preserveAspectRatio="xMidYMid meet">
<metadata>
Created by potrace 1.11, written by Peter Selinger 2001-2013
</metadata>
<g transform="translate(0.000000,1920.000000) scale(0.100000,-0.100000)"
fill="#000000" stroke="none">
<path d="M9130 19015 c-10 -12 -17 -12 -34 -3 -18 10 -19 9 -9 -4 10 -12 10
-15 -2 -15 -8 0 -15 5 -15 11 0 6 -5 4 -10 -4 -8 -13 -10 -12 -10 3 0 9 -4 17
-10 17 -5 0 -6 -8 -3 -17 6 -16 5 -16 -10 -4 -9 7 -17 9 -17 4 0 -5 -18 -9
-40 -10 -24 0 -40 4 -40 11 0 6 -4 5 -9 -3 -5 -8 -19 -12 -35 -9 -14 3 -27 0
-30 -6 -3 -7 -5 -7 -5 1 -1 7 -8 10 -16 7 -8 -4 -12 -10 -9 -16 3 -5 -4 -4
-15 4 -18 11 -23 11 -31 -2 -9 -13 -10 -13 -10 0 0 12 -2 13 -9 1 -7 -11 -9
-11 -14 0 -4 10 -6 10 -6 2 -1 -7 -6 -13 -12 -13 -5 0 -8 4 -5 8 3 5 -1 9 -9
9 -8 0 -12 -4 -9 -8 2 -4 0 -10 -6 -14 -5 -3 -10 2 -11 12 0 14 -2 15 -7 3 -5
-11 -22 -15 -59 -15 -29 1 -53 -3 -53 -7 0 -4 -5 -8 -11 -8 -5 0 -8 4 -5 8 3
5 -1 9 -9 9 -8 0 -12 -4 -9 -9 6 -9 8 -9 -66 -12 -31 -1 -61 -5 -67 -9 -7 -4
-15 -3 -18 3 -5 8 -11 8 -19 1 -7 -6 -16 -8 -19 -4 -4 3 -7 1 -7 -5 0 -6 -7
-9 -15 -6 -9 4 -15 0 -15 -7 0 -12 -2 -12 -9 0 -6 9 -15 11 -27 6 -28 -12 -68
-12 -76 0 -5 6 -8 3 -8 -7 0 -10 -5 -18 -11 -18 -5 0 -8 4 -5 9 3 5 -1 12 -10
15 -8 3 -12 2 -9 -4 3 -6 1 -10 -5 -10 -6 0 -8 -4 -5 -10 3 -5 2 -10 -4 -10
-5 0 -12 6 -15 13 -5 9 -7 9 -12 0 -3 -6 -17 -9 -30 -7 -19 3 -24 1 -18 -8 6
-10 3 -9 -9 1 -15 12 -17 11 -17 -5 0 -17 -1 -17 -13 1 -11 14 -16 15 -22 5
-6 -9 -4 -11 6 -5 12 7 12 5 1 -6 -11 -12 -14 -12 -21 0 -5 8 -10 9 -12 3 -2
-6 -26 -12 -52 -13 -27 -2 -50 -6 -53 -11 -8 -13 -26 -9 -19 5 4 6 1 5 -7 -3
-7 -8 -26 -14 -43 -14 -16 1 -38 -4 -49 -12 -20 -14 -50 -8 -39 9 3 6 1 7 -6
3 -6 -4 -8 -12 -5 -18 5 -7 1 -9 -9 -5 -9 3 -19 2 -23 -4 -4 -6 -12 -5 -22 3
-12 10 -14 10 -8 1 9 -16 -6 -17 -21 -2 -9 9 -10 6 -6 -12 5 -24 5 -24 -11 -4
-10 12 -14 14 -11 5 6 -18 -35 -23 -47 -6 -5 7 -8 4 -8 -7 0 -15 -3 -16 -21
-6 -15 8 -19 8 -15 0 4 -6 2 -11 -4 -11 -6 0 -9 -4 -6 -9 4 -5 -9 -5 -30 -1
-30 7 -35 6 -29 -7 4 -13 3 -14 -9 -4 -11 9 -15 9 -19 -1 -4 -10 -8 -10 -16 2
-9 13 -11 12 -11 -5 0 -14 -3 -16 -8 -8 -6 10 -12 10 -28 -2 -10 -8 -23 -14
-29 -15 -5 0 -3 5 5 10 12 7 10 9 -7 7 -12 0 -19 -5 -17 -9 3 -4 -2 -8 -10 -8
-9 0 -16 -6 -16 -12 0 -8 -3 -9 -8 -3 -10 14 -44 16 -35 2 4 -6 0 -8 -10 -4
-10 3 -17 2 -17 -4 0 -6 -4 -7 -10 -4 -5 3 -10 0 -10 -7 0 -9 -3 -9 -10 2 -6
10 -10 11 -10 3 0 -7 -10 -13 -23 -13 -13 0 -29 -6 -36 -12 -11 -11 -12 -10
-6 2 8 13 6 13 -8 1 -9 -7 -26 -11 -37 -8 -13 3 -18 1 -13 -6 4 -7 0 -8 -11
-4 -10 4 -15 3 -11 -3 4 -6 -8 -11 -27 -12 -56 -2 -59 -3 -68 -18 -5 -8 -10
-11 -10 -6 0 5 -7 3 -15 -4 -9 -7 -18 -10 -22 -6 -3 3 0 6 7 6 7 0 11 3 7 6
-3 3 -19 -3 -35 -14 -22 -16 -32 -18 -40 -10 -9 9 -12 9 -12 -1 0 -7 -4 -10
-9 -7 -5 3 -11 0 -14 -8 -4 -9 -19 -12 -47 -11 -27 2 -37 -1 -29 -6 11 -7 10
-9 -4 -9 -11 0 -15 -5 -11 -11 4 -8 0 -8 -15 0 -18 10 -21 9 -21 -6 0 -10 -4
-14 -8 -8 -4 6 -15 11 -25 11 -14 2 -15 -1 -7 -12 9 -10 6 -12 -15 -8 -17 3
-24 1 -20 -6 3 -6 0 -7 -9 -4 -10 4 -16 1 -16 -7 0 -7 -3 -9 -7 -6 -3 4 -12 2
-20 -4 -10 -9 -13 -8 -13 2 0 11 -2 11 -10 -1 -5 -8 -10 -10 -10 -5 0 6 -4 4
-9 -4 -11 -17 -51 -22 -51 -7 -1 6 -6 2 -13 -9 -8 -14 -22 -21 -43 -20 -18 0
-30 -5 -28 -10 3 -6 -8 -12 -23 -13 -15 -1 -30 -7 -34 -13 -4 -8 -8 -7 -12 2
-4 10 -6 9 -6 -3 -1 -11 -8 -15 -26 -14 -13 2 -22 -1 -19 -5 3 -5 -2 -9 -10
-9 -9 0 -16 -6 -16 -12 0 -10 -2 -10 -9 0 -6 11 -11 10 -25 -3 -9 -9 -16 -13
-16 -9 0 4 -7 -1 -16 -12 -8 -10 -13 -14 -10 -8 3 7 -1 14 -9 17 -9 4 -12 1
-8 -9 4 -10 0 -12 -13 -7 -13 5 -15 3 -9 -7 6 -10 2 -12 -19 -8 -14 3 -26 1
-26 -4 0 -5 -5 -6 -12 -2 -7 5 -9 2 -5 -9 4 -11 2 -14 -9 -10 -8 3 -24 -3 -35
-13 -16 -15 -19 -15 -14 -2 4 9 1 19 -5 23 -6 3 -10 3 -9 -2 1 -4 1 -17 0 -28
-1 -14 -4 -16 -13 -7 -9 9 -14 7 -24 -6 -12 -17 -16 -18 -55 -21 -11 0 -17 -5
-14 -11 3 -5 2 -10 -4 -10 -5 0 -12 6 -14 13 -3 7 -6 5 -6 -5 -1 -10 -9 -19
-18 -20 -10 0 -24 -2 -32 -2 -8 -1 -16 -7 -19 -14 -2 -6 -12 -12 -23 -12 -10
0 -19 -4 -19 -10 0 -5 -3 -9 -7 -9 -21 3 -33 -2 -27 -12 5 -8 1 -8 -14 0 -15
8 -23 8 -28 -1 -5 -7 -3 -8 6 -3 8 5 11 4 6 -3 -4 -6 -14 -8 -23 -5 -13 5 -15
2 -9 -13 6 -15 4 -16 -5 -7 -9 9 -15 8 -28 -6 -9 -9 -12 -11 -7 -4 6 10 4 12
-8 7 -9 -3 -16 -11 -16 -16 0 -6 -7 -5 -15 2 -13 11 -14 10 -9 -5 6 -15 3 -17
-19 -13 -15 3 -24 2 -22 -2 3 -4 -7 -15 -21 -25 -21 -14 -28 -14 -42 -3 -12
10 -14 10 -8 0 4 -7 0 -19 -8 -28 -10 -9 -16 -11 -16 -4 0 7 -6 5 -16 -4 -8
-9 -22 -16 -30 -16 -8 0 -17 -6 -20 -14 -3 -7 -16 -12 -29 -10 -14 1 -28 -3
-32 -8 -3 -7 -1 -8 5 -4 8 5 10 2 6 -9 -5 -12 -9 -13 -20 -4 -11 9 -14 8 -14
-1 0 -7 -7 -10 -15 -6 -8 3 -14 2 -14 -2 3 -19 -2 -23 -16 -12 -13 11 -14 10
-8 -5 5 -15 3 -17 -11 -12 -11 5 -15 3 -10 -5 5 -8 2 -9 -9 -5 -11 4 -17 1
-17 -8 0 -16 -1 -16 -39 -20 -14 -1 -29 -9 -35 -16 -17 -21 -52 -47 -42 -31 7
11 4 11 -12 1 -12 -7 -18 -18 -14 -24 3 -5 -3 -3 -13 5 -11 9 -16 10 -11 3 4
-9 1 -13 -9 -13 -10 0 -15 -6 -12 -13 3 -9 -3 -13 -17 -13 -11 1 -20 -4 -19
-11 1 -6 -8 -10 -22 -8 -13 1 -23 -1 -21 -4 2 -3 -2 -12 -10 -19 -8 -7 -14 -8
-14 -2 0 5 -4 10 -10 10 -5 0 -10 -7 -10 -15 0 -9 -9 -15 -21 -15 -14 0 -19
-5 -16 -14 4 -10 0 -14 -13 -11 -10 2 -21 -3 -24 -11 -3 -8 -15 -14 -26 -14
-14 0 -19 -4 -14 -12 4 -6 3 -8 -4 -4 -6 3 -17 0 -25 -8 -8 -8 -18 -12 -22 -8
-5 4 -5 -1 -2 -11 6 -15 4 -16 -13 -7 -17 9 -20 8 -20 -11 0 -18 -2 -19 -15
-9 -13 10 -15 9 -16 -11 0 -13 -3 -18 -6 -11 -2 6 -9 12 -14 12 -4 0 -6 -7 -3
-15 4 -11 2 -13 -9 -9 -8 3 -18 0 -22 -5 -3 -6 -11 -8 -17 -5 -7 4 -8 2 -4 -4
4 -7 2 -12 -4 -12 -6 0 -8 -5 -4 -12 5 -8 0 -7 -11 2 -10 8 -16 10 -12 3 4 -7
-1 -14 -13 -18 -11 -4 -17 -11 -14 -17 4 -6 2 -8 -4 -4 -6 3 -17 -1 -26 -9 -8
-8 -21 -14 -28 -13 -7 2 -12 -3 -11 -9 2 -8 -7 -13 -23 -13 -14 0 -23 -4 -19
-10 3 -5 1 -10 -5 -10 -6 0 -8 -5 -4 -12 5 -8 2 -8 -10 1 -15 12 -17 12 -14 0
2 -8 -3 -13 -11 -11 -9 2 -11 -3 -7 -14 5 -14 4 -15 -8 -5 -11 9 -15 8 -20 -4
-4 -11 -13 -14 -28 -10 -18 5 -20 4 -8 -4 13 -10 13 -12 0 -20 -8 -5 -18 -7
-24 -4 -5 3 -6 1 -2 -5 4 -7 2 -12 -3 -12 -6 0 -20 -9 -32 -21 -15 -15 -24
-18 -34 -9 -10 8 -13 7 -11 -7 0 -11 -5 -18 -16 -17 -10 1 -17 -1 -16 -5 3
-26 -28 -50 -56 -43 -5 2 -6 -4 -2 -13 4 -10 2 -14 -5 -9 -7 4 -21 -4 -31 -17
-11 -13 -17 -17 -13 -9 4 8 -4 3 -17 -11 -13 -14 -32 -25 -40 -23 -11 1 -15
-3 -11 -14 4 -10 2 -13 -5 -8 -7 4 -12 2 -12 -3 0 -6 -7 -11 -16 -11 -8 0 -12
-4 -9 -10 3 -5 -1 -10 -10 -10 -9 0 -14 -4 -11 -9 5 -7 -22 -25 -32 -21 -1 0
-16 -14 -33 -32 -21 -23 -28 -27 -23 -13 7 20 7 20 -9 0 -8 -11 -13 -24 -10
-29 4 -5 1 -6 -5 -2 -6 4 -21 -3 -32 -14 -11 -11 -25 -18 -31 -15 -5 4 -8 1
-7 -7 2 -7 -5 -12 -15 -12 -15 2 -16 -1 -5 -14 9 -11 9 -13 1 -9 -7 4 -16 0
-22 -10 -6 -11 -11 -13 -11 -5 0 8 -7 6 -21 -7 -12 -11 -18 -24 -15 -29 4 -6
-2 -8 -14 -5 -14 4 -20 1 -18 -8 2 -8 -3 -13 -9 -12 -11 3 -17 -9 -15 -28 1
-4 -6 -6 -16 -5 -9 0 -16 -5 -15 -11 2 -7 -8 -15 -22 -19 -14 -3 -22 -10 -19
-15 3 -5 -2 -9 -10 -9 -9 0 -16 -5 -16 -11 0 -8 -6 -7 -17 2 -15 13 -15 12 -4
-8 10 -19 9 -23 -3 -23 -9 0 -34 -19 -58 -42 -23 -24 -34 -32 -23 -18 l20 25
-22 -19 c-13 -11 -23 -25 -23 -32 0 -7 -5 -16 -12 -20 -7 -4 -8 -3 -4 4 4 7 3
12 -2 12 -5 0 -14 -12 -20 -26 -7 -15 -17 -22 -24 -18 -7 5 -9 2 -5 -9 3 -8 0
-18 -8 -21 -10 -3 -12 0 -9 12 4 12 2 11 -7 -3 -7 -11 -34 -41 -60 -67 -26
-25 -45 -49 -41 -53 3 -3 -2 -3 -11 1 -12 4 -17 2 -15 -7 2 -8 -3 -13 -9 -12
-7 2 -13 -4 -13 -13 0 -9 -5 -12 -12 -8 -7 5 -9 2 -5 -9 4 -12 2 -14 -10 -10
-12 5 -14 3 -8 -7 6 -10 4 -12 -9 -7 -14 5 -17 3 -12 -8 3 -9 0 -15 -9 -15 -8
0 -15 -7 -15 -16 0 -8 -4 -12 -10 -9 -5 3 -10 1 -10 -5 0 -6 -5 -8 -12 -4 -8
5 -9 2 -5 -10 5 -14 3 -17 -8 -12 -9 3 -15 0 -15 -9 0 -8 -7 -15 -15 -15 -8 0
-15 -9 -15 -20 0 -11 -6 -19 -12 -17 -7 1 -12 -4 -11 -10 2 -7 -4 -13 -12 -13
-8 0 -15 -6 -15 -14 0 -7 -8 -20 -17 -27 -16 -13 -17 -12 -4 4 8 9 11 20 9 23
-3 3 -12 -8 -19 -25 -7 -16 -16 -28 -19 -27 -3 2 -14 -5 -25 -16 -20 -19 -20
-19 0 -13 11 3 7 -1 -8 -10 -15 -9 -25 -20 -22 -25 3 -4 -5 -6 -17 -3 -16 3
-19 2 -10 -5 10 -7 9 -12 -4 -23 -15 -12 -17 -12 -9 0 5 10 4 12 -3 7 -7 -4
-12 -12 -12 -17 0 -5 -12 -22 -26 -37 -15 -15 -23 -20 -19 -12 5 9 4 12 -1 7
-5 -5 -9 -14 -9 -20 -1 -7 -6 -11 -13 -9 -7 1 -11 -1 -11 -5 3 -20 -2 -34 -11
-28 -6 3 -10 0 -10 -8 0 -8 -13 -24 -30 -37 -16 -13 -30 -29 -30 -36 0 -13
-13 -19 -34 -15 -5 1 -3 -5 4 -14 11 -14 11 -16 -1 -13 -8 2 -13 -3 -11 -9 2
-12 -11 -18 -32 -14 -5 1 -3 -6 5 -15 12 -16 12 -17 -3 -11 -12 4 -18 2 -18
-8 0 -8 -4 -15 -10 -15 -5 0 -10 -7 -10 -15 0 -8 -6 -12 -15 -9 -9 4 -16 -3
-21 -20 -3 -15 -18 -33 -33 -42 -14 -8 -18 -13 -8 -10 11 3 15 2 12 -4 -3 -6
-13 -10 -22 -10 -9 0 -13 -3 -10 -7 4 -3 -4 -16 -18 -28 -13 -13 -21 -26 -18
-29 4 -3 -1 -6 -10 -6 -8 0 -19 -9 -22 -21 -9 -28 -37 -59 -47 -53 -4 3 -5 -1
-2 -9 3 -9 -4 -21 -15 -29 -12 -8 -18 -18 -14 -21 3 -4 1 -7 -6 -7 -7 0 -10
-4 -7 -9 3 -5 -4 -11 -15 -14 -12 -3 -18 -10 -15 -16 3 -5 -5 -19 -20 -30 -14
-11 -23 -25 -19 -31 4 -7 -1 -13 -12 -16 -10 -3 -24 -18 -32 -34 -7 -16 -18
-28 -24 -27 -7 1 -11 -6 -9 -17 2 -11 -1 -15 -7 -11 -10 5 -15 -7 -12 -27 2
-12 -13 -9 -29 5 -12 10 -12 9 -3 -3 6 -8 13 -17 14 -20 1 -3 -9 -18 -24 -34
-15 -16 -24 -34 -20 -40 4 -6 -1 -5 -11 3 -9 8 -16 10 -15 5 4 -23 -2 -35 -13
-28 -10 6 -10 4 0 -8 10 -13 10 -18 1 -24 -8 -5 -10 -3 -5 7 4 8 1 6 -8 -5 -9
-11 -20 -15 -28 -11 -10 6 -11 5 0 -6 18 -20 15 -32 -9 -26 -16 4 -18 3 -8 -9
10 -13 6 -18 -13 -15 -4 0 -5 -8 -3 -19 2 -12 0 -18 -6 -15 -8 6 -13 -9 -10
-29 1 -5 -5 -3 -14 4 -13 11 -15 10 -9 -4 4 -10 0 -18 -10 -22 -13 -5 -14 -9
-5 -20 10 -12 8 -13 -6 -7 -15 5 -17 3 -12 -11 5 -11 3 -15 -5 -10 -8 5 -9 2
-5 -10 4 -9 3 -15 -2 -12 -9 6 -26 -22 -22 -38 1 -5 -5 -6 -13 -3 -10 4 -14 0
-11 -14 3 -12 -2 -19 -12 -19 -10 0 -14 -6 -10 -19 3 -15 1 -18 -11 -14 -10 4
-13 2 -8 -5 4 -7 2 -12 -3 -12 -6 0 -11 -5 -11 -11 0 -5 6 -7 13 -4 6 4 -1 -5
-16 -19 -15 -14 -24 -26 -20 -26 4 0 0 -5 -9 -11 -10 -5 -18 -17 -18 -25 0 -8
-4 -13 -9 -10 -5 4 -7 -4 -4 -16 4 -19 3 -20 -6 -8 -9 13 -11 13 -11 -2 0 -10
-5 -18 -11 -18 -5 0 -7 -4 -4 -10 11 -18 -6 -32 -23 -18 -13 11 -14 11 -7 -2
15 -24 14 -40 -1 -40 -8 0 -11 -6 -7 -17 4 -11 3 -14 -5 -9 -8 5 -12 0 -12
-13 0 -12 -5 -21 -11 -21 -5 0 -7 -5 -3 -12 5 -8 1 -9 -12 -4 -15 6 -17 5 -6
-6 10 -10 9 -15 -8 -28 -12 -9 -22 -26 -23 -39 -1 -14 -9 -26 -19 -29 -20 -5
-25 -22 -6 -22 6 0 1 -8 -10 -19 -12 -10 -19 -21 -15 -25 6 -5 -11 -10 -28 -8
-4 1 -5 -8 -2 -18 3 -13 0 -20 -8 -20 -11 0 -11 -2 1 -10 11 -7 11 -10 2 -10
-7 0 -10 -4 -7 -10 3 -6 -1 -7 -9 -4 -9 3 -16 2 -16 -4 0 -6 6 -13 13 -15 7
-3 5 -6 -5 -6 -11 -1 -16 -8 -13 -20 2 -13 -1 -18 -10 -15 -16 7 -29 -12 -15
-21 7 -5 6 -11 -5 -19 -9 -6 -17 -20 -19 -30 -1 -9 -9 -22 -17 -27 -12 -7 -12
-9 1 -9 12 -1 11 -3 -3 -11 -14 -8 -16 -14 -6 -25 10 -12 9 -13 -5 -8 -9 3
-16 1 -16 -6 0 -6 -5 -8 -12 -4 -10 6 -10 4 0 -8 10 -13 10 -18 1 -24 -8 -5
-9 -3 -4 6 5 8 4 11 -2 7 -5 -3 -9 -20 -8 -36 1 -22 -2 -28 -10 -21 -7 6 -11
2 -12 -12 -1 -12 -7 -25 -14 -29 -7 -4 -13 -18 -14 -31 -1 -15 -8 -22 -20 -21
-12 1 -14 -2 -6 -10 7 -7 5 -14 -7 -24 -9 -8 -12 -12 -5 -9 6 4 15 1 19 -5 4
-7 3 -9 -3 -6 -6 4 -19 -1 -29 -9 -10 -9 -14 -13 -7 -10 7 4 11 -1 10 -13 0
-11 -5 -17 -11 -14 -5 4 -7 -1 -3 -10 4 -10 2 -16 -6 -14 -7 1 -11 -6 -9 -17
2 -13 -1 -17 -11 -13 -7 3 -14 -1 -14 -9 0 -7 4 -11 9 -8 4 3 8 0 8 -5 0 -6
-5 -11 -11 -11 -5 0 -7 -4 -4 -10 3 -5 1 -10 -5 -10 -6 0 -8 -5 -4 -12 5 -8 2
-9 -9 -5 -14 5 -15 2 -7 -19 7 -17 7 -23 0 -19 -6 3 -10 1 -10 -5 0 -6 -5 -8
-12 -4 -8 5 -9 2 -5 -9 3 -10 4 -24 1 -32 -5 -13 -9 -13 -23 -3 -15 12 -15 11
-1 -6 12 -15 12 -20 2 -24 -10 -3 -10 -7 0 -20 10 -12 10 -14 1 -8 -8 4 -13 1
-13 -9 0 -10 -5 -13 -12 -9 -8 5 -9 2 -5 -9 3 -9 0 -23 -8 -31 -11 -11 -12
-16 -2 -19 6 -3 4 -6 -7 -6 -16 -1 -17 -3 -5 -18 12 -14 12 -16 -1 -11 -16 6
-20 -5 -23 -59 -1 -17 -4 -20 -14 -11 -11 8 -12 7 -7 -7 5 -13 4 -16 -4 -11
-7 4 -12 2 -12 -3 0 -6 5 -11 11 -11 8 0 9 -4 0 -13 -6 -8 -8 -17 -4 -20 3 -4
-2 -10 -11 -13 -14 -5 -15 -9 -4 -16 9 -7 7 -8 -9 -5 -22 5 -22 4 -5 -22 16
-24 16 -25 0 -13 -15 12 -17 11 -13 -7 2 -12 0 -21 -5 -21 -5 0 -6 -7 -3 -17
5 -12 3 -14 -7 -8 -10 6 -12 4 -7 -8 3 -8 0 -18 -8 -21 -8 -3 -12 -14 -10 -26
2 -11 -1 -20 -6 -20 -6 0 -8 -4 -4 -9 3 -5 0 -13 -6 -17 -8 -4 -7 -9 2 -15 10
-6 8 -9 -8 -9 -13 0 -23 -5 -23 -11 0 -6 7 -8 17 -5 16 6 16 6 0 -12 -9 -10
-14 -22 -10 -25 3 -4 -2 -7 -13 -8 -10 0 -14 -3 -7 -5 7 -3 9 -12 6 -20 -3 -7
-10 -11 -17 -7 -6 4 -5 -1 3 -10 9 -12 10 -17 2 -17 -7 0 -9 -5 -5 -12 5 -8 2
-9 -9 -5 -14 5 -15 2 -7 -18 6 -16 6 -25 0 -25 -5 0 -6 -7 -3 -17 4 -11 3 -14
-5 -9 -8 5 -12 -3 -12 -27 0 -41 -8 -51 -29 -35 -11 9 -10 6 2 -9 14 -16 15
-23 6 -29 -8 -5 -10 -3 -4 6 5 9 4 11 -4 6 -9 -6 -9 -11 1 -24 11 -14 10 -15
-7 -8 -16 6 -17 5 -8 -5 10 -10 9 -15 -5 -26 -9 -8 -11 -11 -3 -7 11 5 13 3 8
-10 -4 -10 -7 -20 -7 -22 0 -3 -4 -3 -9 0 -5 4 -7 -3 -4 -14 3 -11 0 -26 -6
-33 -6 -8 -7 -18 -3 -22 4 -5 -2 -5 -12 -1 -15 5 -16 4 -8 -7 13 -16 9 -50 -6
-55 -8 -2 -9 -9 -2 -22 7 -13 7 -21 -2 -26 -7 -5 -8 -3 -3 6 5 9 4 11 -4 6 -9
-6 -9 -11 1 -24 11 -13 11 -15 -4 -9 -13 4 -16 1 -13 -15 3 -12 0 -27 -6 -35
-9 -10 -8 -13 2 -13 11 0 11 -2 -1 -9 -8 -6 -17 -8 -20 -6 -3 2 -6 -5 -6 -15
0 -10 5 -16 11 -12 6 4 6 1 -1 -9 -11 -16 -12 -29 -2 -45 4 -6 1 -11 -7 -11
-8 0 -12 4 -9 8 2 4 1 10 -4 13 -4 2 -8 -6 -8 -19 0 -13 4 -22 8 -19 4 3 5 -2
2 -10 -3 -9 -11 -16 -18 -16 -6 0 -4 -5 4 -10 12 -8 10 -10 -10 -10 -25 -1
-25 -1 -2 -10 12 -5 22 -12 22 -15 0 -4 -5 -3 -12 1 -8 5 -9 2 -5 -10 4 -9 3
-15 -2 -12 -5 3 -11 -1 -15 -9 -3 -8 0 -15 7 -15 8 0 9 -2 1 -8 -6 -4 -10 -15
-8 -25 1 -9 -2 -14 -8 -11 -6 4 -8 -2 -3 -16 6 -19 4 -22 -9 -17 -12 5 -15 3
-9 -6 12 -18 10 -31 -7 -45 -13 -10 -12 -11 4 -6 17 6 17 5 5 -17 -7 -13 -12
-30 -10 -38 1 -7 -2 -10 -8 -6 -8 4 -8 -2 -1 -19 9 -26 -1 -43 -19 -31 -5 3
-13 0 -17 -6 -5 -8 -3 -9 6 -4 10 6 12 4 7 -8 -3 -9 -2 -19 4 -22 5 -4 6 -12
2 -18 -4 -7 -9 -21 -10 -31 -2 -11 -7 -24 -12 -30 -13 -17 -21 -107 -8 -99 6
3 7 1 3 -6 -6 -9 -11 -9 -22 0 -12 10 -13 9 -8 -6 6 -14 4 -16 -7 -10 -8 5 -5
-1 5 -13 11 -12 15 -22 9 -22 -5 0 -9 -16 -8 -36 2 -28 -1 -34 -14 -29 -11 3
-10 0 3 -10 18 -13 15 -20 -7 -16 -4 1 -4 -7 2 -17 6 -11 6 -24 0 -35 -6 -9
-7 -22 -4 -27 3 -6 0 -10 -7 -10 -9 0 -9 -3 2 -10 8 -5 10 -10 4 -10 -7 0 -15
-7 -18 -16 -3 -8 -2 -12 3 -9 18 10 21 -13 4 -26 -12 -10 -14 -10 -9 -1 4 6 2
12 -3 12 -12 0 -14 -13 -4 -24 10 -10 11 -46 0 -39 -5 3 -8 -5 -7 -18 3 -37 1
-51 -8 -45 -5 3 -9 -8 -9 -24 0 -26 3 -28 16 -18 11 9 11 6 -2 -8 -11 -14 -16
-31 -13 -48 3 -14 0 -26 -5 -26 -6 0 -5 -9 2 -21 9 -17 8 -20 -2 -14 -9 6 -11
3 -6 -8 3 -9 2 -19 -3 -22 -6 -4 -10 -11 -10 -16 0 -6 4 -8 8 -5 5 3 9 -1 9
-9 0 -8 -4 -12 -9 -9 -7 5 -13 -60 -9 -95 2 -8 -2 -10 -11 -5 -10 6 -11 5 -1
-7 16 -19 14 -31 -5 -53 -9 -11 -12 -16 -5 -13 6 4 14 3 17 -2 3 -5 -3 -11
-13 -14 -16 -4 -22 -30 -11 -44 7 -9 4 -29 -5 -35 -6 -5 -5 -11 4 -17 12 -8
12 -12 2 -25 -10 -12 -10 -16 -2 -16 7 0 9 -5 6 -10 -4 -6 -12 -8 -18 -4 -7 3
-3 -2 7 -10 19 -16 19 -16 -5 -17 -13 0 -18 -3 -11 -6 16 -6 16 -35 0 -52 -8
-9 -8 -11 -2 -8 7 4 15 0 18 -9 4 -10 2 -13 -6 -8 -7 5 -9 2 -5 -8 3 -9 0 -21
-6 -27 -7 -7 -8 -11 0 -11 11 0 10 -32 -2 -69 -3 -12 -2 -21 3 -21 6 0 8 -9 5
-20 -3 -11 -10 -20 -15 -20 -5 0 -6 -5 -3 -10 4 -6 12 -8 18 -4 7 3 3 -2 -7
-10 -11 -9 -15 -16 -10 -16 12 0 11 -67 -1 -78 -5 -4 -5 -1 -1 6 4 6 3 12 -2
12 -5 0 -9 -13 -9 -30 0 -27 2 -28 15 -12 9 11 8 7 -2 -10 -9 -16 -12 -28 -6
-28 5 0 10 -5 10 -11 0 -5 -4 -8 -9 -5 -10 7 -9 -20 2 -30 4 -4 2 -13 -4 -21
-9 -10 -8 -13 2 -13 9 0 10 -3 4 -8 -14 -10 -15 -105 -1 -114 7 -5 7 -8 -2 -8
-8 0 -10 -8 -6 -26 5 -21 4 -25 -6 -19 -10 6 -11 4 -4 -6 12 -20 12 -101 0
-118 -8 -11 -8 -13 1 -7 9 5 13 0 13 -14 0 -14 -4 -19 -12 -14 -10 6 -10 4 -2
-7 6 -8 10 -63 9 -131 0 -64 3 -114 8 -111 5 3 4 -4 -2 -15 -13 -24 -14 -35
-3 -28 4 2 8 -9 7 -25 0 -21 -4 -28 -14 -24 -10 4 -9 0 3 -14 13 -14 16 -25 9
-33 -14 -19 -7 -67 14 -91 18 -19 17 -20 -4 -8 -31 16 -41 14 -16 -4 14 -10
20 -23 18 -37 -3 -12 0 -27 6 -34 7 -8 7 -14 -1 -19 -14 -9 -13 -27 2 -20 7 4
3 -2 -9 -13 -19 -17 -20 -21 -7 -26 8 -3 13 -10 9 -15 -3 -5 -1 -12 4 -16 6
-3 8 -12 4 -20 -3 -9 1 -23 8 -32 8 -10 9 -14 2 -10 -6 4 -14 3 -18 -3 -3 -5
-1 -10 6 -10 10 0 10 -3 1 -12 -15 -15 -15 -28 -1 -28 5 0 7 6 3 13 -4 7 -3 9
2 4 5 -5 9 -12 9 -15 0 -4 4 -14 10 -22 8 -13 7 -13 -10 0 -11 9 -16 10 -11 3
4 -7 4 -19 0 -25 -11 -18 -12 -48 -2 -42 5 4 7 12 4 20 -3 7 -1 16 3 18 14 9
20 -5 11 -29 -6 -15 -4 -27 3 -35 10 -10 8 -12 -5 -7 -22 8 -23 3 -2 -18 13
-12 14 -19 4 -30 -7 -8 -8 -15 -3 -15 10 0 13 -16 13 -58 0 -15 4 -21 12 -16
7 4 8 3 4 -5 -5 -7 -13 -9 -20 -4 -7 4 -4 1 6 -9 13 -12 15 -18 6 -21 -10 -3
-10 -8 1 -18 12 -12 13 -12 6 0 -6 10 -4 12 4 7 9 -6 8 -13 -6 -29 -10 -11
-13 -17 -6 -14 6 4 14 3 18 -3 3 -5 -2 -10 -12 -11 -10 0 -13 -3 -5 -6 15 -6
16 -63 0 -63 -6 0 -8 -3 -5 -6 4 -4 14 -1 23 7 16 13 16 12 6 -8 -17 -31 -15
-38 6 -22 16 13 16 13 -1 -7 -20 -24 -23 -41 -4 -26 9 8 12 0 10 -36 0 -26 4
-53 10 -61 9 -12 9 -13 0 -7 -8 4 -13 1 -13 -8 0 -9 5 -16 11 -16 8 0 7 -6 -2
-17 -8 -10 -9 -14 -2 -10 6 4 14 3 18 -3 3 -5 1 -11 -4 -11 -26 -3 -30 -4 -37
-11 -3 -4 3 -6 14 -3 11 2 27 -4 34 -13 11 -14 11 -15 -5 -9 -15 6 -16 4 -5
-16 7 -12 11 -26 10 -30 -1 -4 3 -17 9 -29 16 -29 19 -69 5 -61 -8 5 -8 3 0
-8 6 -8 10 -24 9 -36 -1 -12 5 -25 13 -28 11 -4 12 -8 2 -20 -7 -8 -15 -13
-19 -10 -10 6 -7 -32 3 -42 4 -5 7 -3 6 2 -4 18 0 35 8 35 12 0 13 -42 1 -56
-7 -8 -6 -15 2 -20 8 -5 9 -3 4 7 -8 12 -6 12 8 0 16 -13 14 -36 -3 -26 -21
13 -18 -15 4 -32 18 -15 22 -23 14 -36 -6 -11 -5 -17 2 -17 5 0 10 -5 10 -11
0 -5 -4 -7 -10 -4 -15 9 -12 -1 5 -18 8 -8 15 -31 17 -51 1 -20 7 -36 13 -36
5 0 3 -5 -5 -10 -12 -8 -12 -10 -1 -10 11 0 11 -3 0 -17 -10 -11 -10 -14 -1
-9 11 6 17 -5 13 -26 0 -5 3 -8 9 -8 5 0 7 -7 4 -15 -4 -8 -11 -12 -17 -8 -6
4 -7 1 -3 -6 5 -7 14 -10 22 -7 7 3 16 0 20 -6 4 -6 3 -8 -3 -5 -12 8 -39 -20
-29 -30 3 -3 6 -1 6 5 0 7 5 12 11 12 5 0 8 -4 4 -9 -3 -5 0 -13 5 -16 6 -4
10 -17 8 -30 -1 -12 4 -30 12 -40 14 -17 13 -18 -10 -6 l-25 12 24 -20 c13
-12 17 -21 10 -21 -8 0 -5 -6 7 -15 18 -13 18 -14 1 -15 -15 0 -16 -2 -5 -14
7 -8 16 -12 20 -9 4 2 5 -3 2 -11 -3 -9 -10 -14 -14 -11 -5 3 -12 0 -16 -7 -4
-7 -4 -10 1 -6 4 4 15 2 23 -5 11 -8 14 -8 9 0 -4 6 -4 14 0 16 5 3 9 -7 9
-23 1 -22 -2 -27 -15 -24 -9 3 -6 -1 6 -7 13 -7 23 -16 23 -21 0 -5 -4 -6 -10
-3 -6 3 -7 -1 -4 -9 3 -9 10 -13 15 -10 6 3 8 -6 5 -20 -3 -15 0 -26 7 -26 6
0 2 -6 -9 -14 -13 -10 -14 -14 -4 -13 8 2 21 6 28 10 6 5 12 4 12 -2 0 -5 -5
-11 -11 -13 -9 -3 -9 -9 0 -25 6 -12 11 -33 11 -47 0 -14 4 -26 8 -26 12 0 13
-53 1 -61 -18 -11 0 -31 22 -24 17 6 18 3 9 -19 -6 -16 -6 -27 1 -31 5 -4 7
-10 4 -15 -3 -5 0 -12 6 -16 8 -5 9 -3 4 6 -5 9 -4 11 4 6 6 -4 9 -11 6 -16
-3 -5 -1 -11 3 -14 5 -3 8 -17 7 -31 -2 -16 2 -25 11 -25 17 0 18 -17 2 -23
-10 -4 -10 -6 0 -6 6 -1 12 -8 12 -16 0 -8 4 -15 9 -15 6 0 8 -9 6 -20 -2 -11
4 -25 13 -31 16 -10 16 -10 0 -5 -12 3 -15 1 -11 -10 3 -9 12 -13 21 -9 12 4
13 3 2 -10 -9 -11 -10 -15 0 -15 8 0 9 -10 5 -33 -6 -28 -5 -30 7 -14 12 15
13 14 14 -17 0 -21 -4 -32 -9 -29 -6 3 -7 1 -3 -6 4 -6 12 -9 18 -5 6 4 8 -3
6 -17 -1 -13 -8 -24 -15 -24 -6 0 -15 -3 -19 -7 -3 -4 3 -6 15 -3 22 4 65 -31
55 -46 -2 -4 1 -11 6 -14 8 -5 5 -14 -7 -28 -10 -12 -14 -19 -9 -15 4 4 20 -4
34 -17 23 -21 24 -26 11 -41 -8 -10 -9 -15 -4 -12 6 3 19 -6 30 -21 10 -14 12
-21 4 -14 -12 10 -15 8 -15 -7 0 -10 3 -18 6 -18 19 2 30 -3 25 -11 -3 -5 -1
-12 5 -16 6 -4 8 -10 5 -15 -3 -5 0 -12 6 -16 8 -4 7 -9 -2 -15 -11 -7 -10
-12 5 -26 19 -17 19 -17 5 2 -13 19 -13 19 4 6 13 -10 15 -17 6 -27 -9 -11 -8
-14 4 -14 9 0 19 -5 23 -12 4 -7 3 -8 -4 -4 -7 4 -12 1 -12 -8 0 -9 5 -16 11
-16 6 0 9 -9 6 -19 -3 -12 0 -18 7 -15 6 2 13 -5 14 -16 1 -11 3 -29 4 -40 1
-13 7 -19 16 -15 10 3 12 0 8 -10 -3 -8 -1 -15 4 -15 5 0 6 -7 3 -17 -4 -10
-2 -14 4 -10 12 8 27 -38 18 -53 -4 -6 1 -10 9 -10 9 0 16 -9 16 -21 0 -13 4
-18 13 -13 9 6 9 4 -1 -8 -10 -13 -10 -18 -1 -24 8 -5 9 -3 4 6 -5 9 -4 11 4
6 9 -6 9 -11 0 -22 -10 -12 -8 -13 7 -8 18 5 18 5 1 -9 -16 -13 -16 -15 -2
-21 11 -4 14 -2 9 6 -5 7 -3 8 5 3 7 -4 10 -16 8 -27 -4 -14 0 -22 14 -25 11
-3 19 -10 18 -17 -4 -29 2 -47 12 -40 8 5 10 -1 7 -20 -3 -15 -1 -26 6 -26 10
0 39 -35 41 -50 5 -27 18 -49 27 -44 7 5 8 2 3 -6 -6 -10 -11 -9 -21 5 -12 16
-13 16 -11 -3 0 -11 4 -19 8 -17 3 3 17 -4 29 -15 13 -11 18 -20 12 -20 -7 0
-12 -5 -12 -11 0 -6 6 -9 14 -6 10 4 12 -1 9 -16 -4 -18 -3 -20 7 -7 9 12 11
10 7 -12 -2 -15 0 -25 5 -22 5 3 12 -3 15 -15 3 -12 10 -18 17 -14 6 4 5 -1
-3 -10 -9 -12 -10 -17 -2 -17 7 0 9 -4 6 -10 -3 -5 0 -10 8 -10 8 0 17 -8 21
-17 3 -10 9 -25 12 -33 3 -8 -3 -5 -13 8 -18 21 -19 22 -19 3 0 -11 3 -19 6
-18 3 1 19 -7 35 -16 27 -16 28 -17 5 -12 -24 6 -24 5 -4 -7 12 -7 19 -19 16
-27 -3 -8 0 -11 7 -7 6 4 11 2 11 -4 0 -6 4 -8 10 -5 5 3 7 0 5 -8 -3 -7 3
-24 15 -37 24 -27 26 -38 5 -20 -13 11 -14 10 -9 -4 3 -9 12 -16 20 -16 17 0
18 -12 2 -30 -11 -12 -10 -12 4 -2 11 9 18 10 23 2 3 -5 2 -10 -3 -10 -5 0 -9
-7 -9 -15 0 -10 4 -12 12 -5 17 14 27 0 12 -18 -8 -11 -8 -14 0 -9 6 4 18 -1
26 -13 7 -11 17 -17 21 -13 4 4 4 -1 0 -11 -5 -14 -9 -15 -15 -4 -6 9 -9 9 -9
1 0 -6 4 -14 10 -18 5 -3 6 -13 3 -23 -5 -14 -2 -13 11 3 17 20 17 20 12 -3
-2 -13 -2 -21 1 -18 3 3 12 -1 19 -9 15 -15 19 -29 6 -21 -11 6 -9 -31 2 -41
4 -5 6 -3 4 4 -2 6 2 11 7 12 6 0 10 -5 10 -13 0 -7 15 -28 33 -46 21 -20 32
-40 29 -51 -3 -12 0 -16 10 -12 11 4 14 2 11 -8 -3 -8 4 -19 14 -25 19 -10 19
-11 2 -29 -17 -17 -17 -17 5 -10 21 6 23 5 19 -18 -3 -17 -1 -24 8 -20 13 5
56 -36 49 -47 -3 -4 1 -13 9 -19 8 -7 17 -23 20 -36 4 -14 11 -25 17 -25 6 0
8 -4 4 -9 -3 -5 4 -12 14 -16 12 -4 18 -12 14 -21 -3 -7 0 -14 7 -14 8 0 10
-8 7 -21 -4 -16 -3 -18 9 -8 8 6 15 9 15 5 1 -3 2 -12 3 -18 1 -7 7 -12 14
-11 7 2 9 -4 5 -14 -4 -11 -3 -14 5 -9 8 5 10 1 5 -10 -5 -13 -3 -15 8 -9 11
7 11 5 -1 -10 -8 -10 -10 -16 -5 -13 18 11 38 -8 38 -37 0 -18 2 -23 7 -14 7
10 11 10 24 0 9 -8 16 -18 16 -24 0 -6 -7 -2 -15 9 -8 10 -15 16 -15 12 0 -12
47 -58 54 -53 3 3 2 -1 -4 -7 -5 -7 -10 -17 -10 -23 0 -6 3 -6 8 1 5 7 14 5
27 -9 11 -11 15 -17 8 -13 -6 3 -15 1 -19 -5 -4 -7 -3 -9 4 -5 6 3 17 0 25 -8
8 -8 17 -13 19 -11 3 3 5 -2 5 -10 0 -8 -3 -12 -7 -10 -10 6 -8 -29 2 -42 6
-7 14 -11 18 -8 4 2 15 -4 25 -15 10 -11 20 -18 24 -16 3 1 14 -5 23 -16 20
-20 10 -25 -11 -5 -8 6 -6 0 4 -15 9 -16 19 -28 22 -28 2 0 1 4 -2 10 -3 6 1
7 9 4 9 -3 13 -10 10 -15 -3 -5 2 -9 10 -9 9 0 16 -4 16 -10 0 -6 -9 -6 -26 0
-16 7 -23 7 -19 0 3 -6 12 -10 20 -10 8 0 19 -8 24 -18 6 -9 11 -13 11 -9 0
13 30 -20 30 -33 0 -6 5 -8 10 -5 6 4 10 3 9 -2 -4 -21 3 -32 21 -38 11 -4 17
-11 14 -16 -8 -13 31 -50 42 -41 4 4 4 1 0 -5 -5 -8 -1 -13 11 -14 14 0 14 -2
-4 -9 -13 -5 -23 -15 -22 -22 0 -10 2 -10 6 0 6 14 33 16 33 2 0 -5 6 -10 14
-10 8 0 18 -9 21 -20 3 -11 11 -20 17 -20 5 0 7 -8 4 -17 -4 -10 -4 -14 0 -10
9 9 84 -62 84 -79 0 -7 6 -14 12 -17 9 -3 7 -9 -6 -19 -16 -13 -16 -15 -2 -15
9 0 16 4 16 9 0 4 8 8 18 7 11 0 13 -2 4 -6 -10 -4 -7 -9 10 -17 12 -6 23 -18
23 -26 1 -8 6 -14 13 -13 7 2 12 -6 12 -17 0 -11 7 -20 16 -20 8 0 12 -5 9
-10 -5 -9 6 -14 26 -12 6 1 8 -8 11 -49 2 -18 4 -19 14 -4 10 13 12 13 17 1 3
-8 1 -17 -6 -20 -7 -2 -2 -5 10 -5 12 -1 25 -6 29 -13 5 -7 3 -8 -6 -3 -9 6
-11 4 -6 -4 5 -7 15 -10 23 -7 11 5 13 1 7 -16 -6 -20 -5 -21 10 -9 15 12 16
12 10 -5 -4 -10 -4 -16 1 -12 4 4 23 -8 42 -27 29 -29 33 -38 23 -50 -8 -9 -8
-15 -2 -15 6 0 12 6 15 13 6 18 17 4 19 -26 1 -15 6 -27 11 -27 5 0 5 9 2 21
-7 20 -6 20 19 -2 20 -17 23 -25 14 -36 -6 -7 -8 -16 -4 -20 3 -3 6 -1 6 5 0
7 5 12 11 12 5 0 7 -5 4 -11 -4 -6 0 -9 11 -7 13 2 20 -4 22 -20 2 -12 10 -22
18 -22 8 0 14 -5 14 -11 0 -5 4 -7 10 -4 6 4 7 -1 3 -12 -6 -16 -5 -16 11 -4
9 8 16 10 15 5 -4 -21 2 -34 16 -34 14 0 20 -13 16 -34 -1 -5 5 -3 14 4 13 11
14 10 8 -5 -5 -15 -3 -17 11 -12 14 5 17 3 12 -8 -3 -10 3 -17 19 -21 14 -3
23 -9 20 -14 -2 -4 8 -13 23 -19 l26 -13 -23 -17 c-17 -13 -19 -18 -7 -18 9 0
16 4 16 9 0 4 7 8 15 8 9 0 12 -6 9 -15 -5 -11 -2 -13 12 -8 12 4 15 3 10 -5
-4 -7 -1 -12 8 -12 8 0 18 -9 21 -20 4 -12 14 -19 23 -18 9 2 16 -3 15 -9 -2
-7 4 -13 13 -13 14 0 14 -3 4 -15 -11 -13 -10 -14 5 -8 14 5 17 3 13 -9 -5
-11 0 -15 20 -14 16 1 27 -4 27 -11 0 -7 4 -12 8 -10 5 1 15 -11 23 -28 8 -16
12 -22 10 -13 -4 12 0 15 9 12 8 -3 14 -9 13 -12 -2 -22 4 -32 22 -32 11 0 20
-5 20 -11 0 -5 -5 -7 -12 -3 -7 4 -8 3 -4 -4 4 -6 13 -9 21 -5 8 3 15 -1 15
-8 0 -7 3 -9 6 -6 4 3 15 -5 26 -18 11 -14 27 -25 35 -25 14 0 13 -3 -3 -22
-16 -19 -16 -20 -1 -9 25 20 33 5 11 -21 -12 -14 -13 -18 -3 -10 9 6 20 8 24
4 5 -4 5 -2 2 4 -4 7 0 15 9 18 12 4 15 2 10 -9 -5 -14 5 -20 27 -16 5 1 6 -3
2 -9 -6 -9 8 -14 28 -11 5 1 6 -3 3 -8 -3 -5 2 -17 12 -28 9 -10 14 -14 10 -9
-17 22 -7 27 12 6 11 -12 17 -28 13 -34 -3 -6 0 -5 8 1 18 18 29 16 29 -4 0
-13 -3 -14 -8 -6 -5 9 -12 6 -21 -10 -13 -20 -13 -21 2 -8 14 11 17 11 17 0 0
-8 6 -5 15 7 8 10 15 14 15 8 0 -5 7 -19 16 -30 8 -10 13 -14 10 -7 -4 6 -2
15 4 18 6 4 10 3 9 -2 -4 -21 2 -33 16 -33 8 0 12 -6 9 -14 -4 -9 2 -13 20
-11 15 2 24 0 21 -4 -2 -5 7 -14 20 -21 13 -7 22 -17 19 -22 -3 -4 0 -8 7 -8
9 0 9 -3 0 -14 -9 -11 -9 -16 0 -22 7 -4 9 -3 6 3 -4 6 1 17 10 24 12 10 14
10 9 2 -4 -8 -2 -13 8 -13 8 0 18 -5 22 -12 5 -7 3 -8 -6 -3 -9 6 -11 4 -6 -4
5 -7 14 -10 22 -7 9 4 18 -4 24 -19 7 -18 14 -23 26 -18 14 5 16 2 11 -18 -6
-23 -5 -23 8 -5 8 11 15 14 15 7 0 -7 5 -9 13 -5 6 4 3 -3 -8 -17 -11 -13 -13
-18 -5 -12 17 15 44 17 35 3 -3 -5 3 -10 15 -10 16 0 20 -5 16 -25 -3 -15 -1
-23 5 -20 5 4 7 11 4 16 -9 13 9 11 22 -2 6 -6 9 -19 6 -28 -4 -12 -1 -10 11
4 10 11 15 14 11 8 -4 -9 1 -13 14 -13 18 0 26 -14 23 -41 -1 -4 7 -5 18 -2
22 6 145 -79 132 -91 -4 -5 0 -7 8 -6 32 5 42 0 37 -19 -5 -19 7 -22 29 -8 15
9 24 -15 19 -44 -2 -12 -1 -18 3 -15 7 7 8 11 11 39 1 8 4 8 10 -3 6 -8 7 -19
3 -25 -3 -5 2 -4 11 3 14 12 20 10 42 -12 15 -15 31 -23 37 -20 7 4 8 2 4 -4
-6 -11 5 -16 26 -13 4 0 5 -9 3 -20 -4 -17 -2 -19 10 -9 12 10 15 10 15 0 0
-8 3 -11 6 -7 4 3 15 -4 25 -16 18 -21 19 -21 14 -2 -4 15 -3 15 7 -3 7 -15
18 -22 29 -19 10 3 18 2 17 -2 -3 -24 4 -33 22 -28 13 3 20 0 20 -10 0 -10 -6
-13 -17 -8 -14 5 -15 3 -6 -6 6 -6 17 -8 25 -3 23 14 38 13 38 -4 0 -8 3 -13
6 -9 4 3 13 -1 21 -9 8 -8 19 -11 25 -8 7 4 8 2 4 -4 -4 -7 -3 -12 3 -12 5 0
12 6 14 13 3 6 6 3 6 -9 1 -30 32 -56 51 -43 13 9 12 10 -2 6 -9 -3 -22 0 -28
8 -9 11 -6 12 17 6 18 -5 27 -14 25 -24 -2 -12 2 -15 14 -10 11 4 15 2 11 -4
-4 -6 3 -9 18 -7 14 1 23 -1 21 -4 -2 -4 3 -16 11 -27 13 -16 15 -17 10 -3 -4
10 -2 18 3 18 6 0 10 -5 10 -11 0 -5 4 -8 9 -5 5 3 11 -1 15 -9 3 -8 12 -15
21 -15 8 0 15 -4 15 -10 0 -5 6 -10 14 -10 7 0 16 -8 18 -18 3 -10 12 -19 21
-19 9 0 14 4 11 9 -3 5 -10 6 -15 3 -5 -4 -9 3 -9 15 0 20 1 20 24 -5 13 -14
34 -27 45 -28 14 -1 19 -7 17 -22 -2 -11 -10 -19 -17 -17 -8 2 -10 0 -6 -4 16
-16 35 -12 32 7 -2 10 0 19 6 19 5 0 9 -5 9 -11 0 -8 6 -7 17 2 9 8 14 9 10 3
-4 -7 3 -14 18 -18 14 -4 25 -11 25 -16 0 -6 5 -10 11 -10 5 0 7 5 3 12 -4 7
-3 8 5 4 6 -4 8 -12 5 -18 -5 -8 -1 -9 12 -5 18 7 18 7 0 -8 -23 -17 -14 -20
15 -5 15 8 21 7 25 -5 3 -8 11 -12 17 -8 6 4 8 -2 4 -18 -5 -22 -5 -22 7 -6
11 14 15 15 19 4 3 -8 0 -21 -6 -28 -10 -11 -9 -11 5 0 10 7 15 18 12 23 -4 6
2 6 13 -1 11 -6 23 -7 27 -4 3 3 6 1 6 -6 0 -7 -7 -11 -14 -8 -9 4 -13 1 -10
-6 2 -7 13 -13 24 -13 10 0 17 3 14 7 -2 4 4 6 13 4 10 -1 17 -8 16 -14 -2 -6
7 -11 20 -11 27 -1 59 -24 49 -36 -4 -4 0 -3 9 4 12 9 20 8 35 -4 18 -15 18
-15 -2 -5 -15 7 -21 7 -21 -3 0 -14 36 -14 59 0 10 6 11 5 1 -7 -11 -13 -9
-15 10 -14 25 2 58 -15 51 -27 -3 -4 2 -8 11 -8 9 0 14 4 11 9 -4 5 5 4 18 -2
17 -8 21 -14 13 -20 -8 -5 -5 -7 8 -6 41 3 47 0 40 -23 -4 -16 -4 -19 3 -9 13
18 33 5 26 -17 -5 -14 -4 -14 4 -3 6 8 8 21 5 30 -3 12 -2 12 7 -1 6 -10 18
-18 27 -18 10 0 13 -6 9 -17 -5 -15 -4 -15 9 1 8 11 15 14 15 7 0 -7 4 -9 10
-6 5 3 10 2 10 -4 0 -5 -6 -12 -12 -15 -7 -3 -4 -4 7 -3 11 1 19 -3 18 -8 -1
-6 7 -11 17 -11 10 0 16 6 13 13 -3 7 -10 11 -15 10 -6 -1 -13 5 -15 13 -4 13
-3 13 6 0 6 -8 11 -11 11 -6 0 5 8 2 18 -7 10 -10 22 -14 25 -10 4 3 7 1 7 -5
0 -5 -6 -12 -12 -15 -7 -3 -3 -4 10 -4 12 1 22 5 22 10 0 4 5 5 11 2 7 -5 4
-14 -8 -28 -15 -18 -15 -20 -1 -8 9 7 22 10 27 6 7 -4 8 1 4 12 -3 10 3 6 16
-9 12 -16 27 -28 34 -28 6 0 2 6 -9 14 -19 14 -18 15 3 13 12 0 21 -4 21 -7
-2 -22 5 -28 28 -24 15 3 23 1 20 -5 -3 -5 5 -8 19 -6 14 1 25 -2 25 -6 0 -5
12 -9 26 -9 14 0 23 -4 19 -9 -3 -5 -1 -12 5 -16 5 -3 10 0 10 7 0 9 3 9 10
-2 12 -19 13 -33 1 -25 -5 3 -13 0 -17 -7 -4 -7 -4 -10 1 -6 4 4 14 3 21 -3 9
-8 12 -4 10 15 -2 17 2 26 11 26 8 0 11 -5 7 -12 -5 -8 -2 -9 10 -5 10 4 15 3
11 -3 -3 -5 5 -9 17 -8 38 1 48 -1 48 -13 0 -8 -6 -7 -17 2 -10 7 -15 9 -11 5
4 -5 2 -16 -5 -25 -11 -14 -10 -14 6 -2 9 7 17 10 17 7 0 -4 10 -2 21 5 12 6
24 7 28 2 3 -4 19 -13 35 -18 16 -6 30 -18 32 -28 1 -11 5 -22 9 -25 3 -4 4 6
1 21 -2 14 0 30 6 33 6 4 8 2 4 -4 -3 -6 -2 -13 4 -17 6 -4 7 -12 3 -18 -5 -8
-2 -8 9 1 13 10 18 9 29 -4 7 -9 14 -23 15 -31 2 -8 6 -18 10 -21 4 -4 5 0 1
10 -9 25 4 30 27 11 21 -18 21 -18 2 4 -10 13 -23 20 -29 16 -6 -4 -7 -1 -2 7
5 9 4 11 -3 6 -7 -4 -12 -2 -12 3 0 16 11 14 32 -6 10 -9 34 -16 54 -16 20 0
30 -4 22 -8 -6 -4 -15 -6 -19 -3 -4 2 -10 1 -13 -4 -3 -5 13 -8 35 -7 21 1 39
-2 39 -7 0 -4 5 -8 11 -8 5 0 7 6 4 13 -4 6 0 4 9 -7 8 -10 19 -15 25 -11 6 3
11 1 11 -6 0 -8 4 -8 15 1 10 9 15 9 15 1 0 -6 3 -10 8 -10 24 4 34 -2 28 -18
-6 -16 -5 -16 11 -1 16 14 20 15 37 2 13 -9 15 -14 6 -14 -7 0 -10 -3 -7 -6 4
-4 13 -2 21 5 11 9 17 8 30 -4 12 -12 16 -13 16 -3 0 10 3 9 10 -2 5 -8 10
-11 10 -7 0 5 7 1 16 -7 11 -12 20 -13 34 -6 16 9 18 8 13 -6 -5 -14 -3 -15
17 -4 20 11 22 10 17 -4 -7 -19 9 -31 19 -15 5 8 3 9 -6 4 -9 -5 -11 -4 -6 4
4 6 11 9 16 6 4 -3 10 -2 13 2 2 5 2 3 1 -4 -2 -7 1 -15 6 -18 6 -4 10 -1 10
5 0 6 5 8 10 5 6 -4 7 -12 4 -18 -5 -8 -3 -8 7 0 16 16 39 17 39 2 0 -5 -4 -8
-9 -4 -5 3 -12 1 -16 -4 -6 -10 33 -6 43 4 3 2 11 -3 19 -13 7 -9 13 -12 12
-7 -3 23 2 29 11 15 9 -13 11 -13 20 0 7 11 10 11 10 2 0 -7 4 -10 10 -7 6 3
7 -1 3 -10 -5 -13 -7 -14 -14 -3 -5 7 -9 8 -9 2 0 -21 14 -24 33 -7 17 15 19
15 15 2 -4 -9 -1 -16 7 -16 7 0 11 7 8 16 -3 11 0 10 7 -3 10 -15 14 -16 21
-5 7 11 9 10 9 -3 0 -11 7 -18 18 -18 14 0 15 2 2 10 -11 7 -8 8 12 6 15 -1
33 -7 40 -13 7 -5 25 -8 41 -7 15 2 27 -2 27 -7 0 -6 -6 -7 -12 -3 -7 4 -3 -4
10 -18 20 -23 58 -36 46 -16 -3 5 -9 6 -14 3 -4 -3 -13 1 -19 9 -9 11 -7 15 9
19 13 3 18 1 13 -6 -4 -6 0 -8 10 -4 10 4 17 1 17 -6 0 -8 4 -6 10 3 7 10 10
11 10 2 0 -8 10 -11 30 -7 17 3 30 1 30 -4 0 -4 -10 -8 -22 -7 -11 0 -23 -6
-25 -14 -3 -10 -2 -11 4 -4 4 6 16 10 27 8 26 -4 47 6 39 20 -3 6 2 4 13 -5
36 -30 48 -34 40 -14 -6 18 -6 18 12 2 10 -9 22 -14 25 -10 4 3 7 2 7 -4 0 -6
23 -10 58 -9 54 2 59 1 57 -19 -2 -14 3 -21 15 -21 10 0 16 6 13 13 -3 7 -10
10 -17 6 -6 -3 -7 -2 -3 2 11 13 38 15 31 3 -3 -5 0 -9 7 -7 28 3 40 -1 33
-13 -5 -7 -3 -8 7 -2 25 15 53 15 61 0 5 -9 15 -13 25 -9 12 5 14 3 7 -8 -12
-20 -14 -40 -3 -33 5 3 7 9 4 14 -3 4 1 12 8 18 15 11 48 12 41 0 -6 -10 10
-11 20 -1 21 21 72 -18 61 -46 -5 -12 -3 -13 5 -5 9 9 9 17 1 32 -7 14 -8 23
-1 27 5 3 10 -1 10 -9 0 -9 5 -16 11 -16 5 0 8 4 4 9 -3 5 0 13 6 17 8 5 9 3
4 -6 -6 -10 -4 -12 8 -7 11 4 14 2 11 -7 -6 -14 23 -42 33 -32 3 3 1 6 -6 6
-7 0 -9 5 -5 12 4 7 3 8 -4 4 -17 -10 -15 -1 4 14 12 11 15 11 12 1 -3 -15 29
-24 38 -10 3 5 11 9 17 9 7 0 6 -4 -3 -11 -12 -8 -8 -9 15 -7 17 1 36 7 44 13
11 7 13 7 7 -2 -4 -8 -2 -13 6 -14 7 0 22 -2 33 -4 10 -2 26 2 34 8 12 10 13
9 2 -10 -10 -19 -9 -22 4 -17 8 4 15 11 15 18 0 7 3 6 9 -2 4 -8 19 -11 35 -8
15 3 24 1 21 -5 -4 -5 -2 -9 4 -9 5 0 12 6 14 13 4 8 6 6 6 -4 1 -9 8 -16 16
-16 11 0 12 4 3 14 -8 11 -7 12 6 7 9 -3 16 -14 17 -23 0 -11 2 -12 6 -3 4 10
9 10 23 -3 19 -17 46 -12 35 6 -9 13 9 11 23 -3 9 -9 12 -8 12 6 0 9 5 14 10
11 6 -4 8 -11 5 -16 -3 -5 1 -6 10 -3 9 4 26 -2 38 -12 12 -10 16 -12 10 -4
-16 18 -17 34 -2 24 7 -4 26 -7 43 -6 22 1 26 -2 16 -8 -9 -6 -10 -10 -3 -10
6 0 15 5 18 10 10 16 28 12 22 -5 -4 -8 -2 -17 4 -20 5 -4 9 -3 8 2 -4 22 3
32 20 30 11 0 17 -5 15 -9 -3 -5 -9 -6 -13 -4 -4 3 -8 -1 -8 -9 0 -12 3 -12
16 -2 9 6 22 19 29 27 10 13 11 13 6 -2 -4 -12 -1 -18 10 -18 9 0 16 4 16 8 0
5 7 9 15 9 9 0 11 -4 6 -11 -6 -7 -1 -11 15 -11 17 0 23 4 19 15 -3 10 -1 10
9 -2 17 -23 27 -23 19 0 -4 12 -1 11 11 -4 13 -18 24 -21 58 -18 100 10 177
10 171 1 -3 -5 4 -4 15 2 27 14 35 14 26 -1 -5 -7 -3 -8 7 -2 21 13 79 13 72
0 -5 -8 -3 -8 8 0 17 12 58 12 78 0 10 -6 12 -5 7 2 -4 7 -2 12 3 12 6 0 11
-6 11 -12 0 -10 2 -10 8 0 9 13 38 12 61 -2 10 -6 12 -5 7 2 -4 7 -2 12 3 12
6 0 11 -5 11 -11 0 -5 5 -7 12 -3 20 12 78 13 78 0 0 -7 3 -6 9 2 5 8 19 11
40 7 24 -4 31 -2 26 7 -4 7 1 4 9 -6 15 -19 22 -11 17 18 -1 5 5 4 13 -4 12
-9 19 -10 29 -1 11 8 18 6 32 -9 16 -18 14 -25 -7 -21 -5 0 -8 -4 -8 -9 0 -6
4 -10 9 -10 15 0 26 22 23 45 -2 17 0 16 12 -5 11 -18 15 -21 16 -8 0 9 5 20
12 24 7 4 8 3 4 -4 -4 -7 0 -13 11 -14 33 -2 38 -3 49 -10 6 -4 11 -1 11 6 0
9 -9 13 -23 10 -13 -2 -25 -1 -27 3 -3 5 21 8 54 8 52 1 58 -1 53 -17 -3 -10
0 -18 6 -18 6 0 9 4 5 9 -3 5 -1 12 5 16 6 4 8 10 5 15 -3 5 8 5 25 0 19 -5
30 -5 30 1 0 6 5 7 11 4 7 -5 4 -14 -8 -28 -18 -22 -18 -22 3 -4 11 9 24 14
29 10 4 -5 5 -2 0 6 -6 11 -1 13 24 9 18 -3 31 0 31 6 0 6 4 4 9 -4 6 -8 7
-18 4 -24 -3 -5 -1 -6 5 -2 6 4 9 13 6 20 -3 8 0 17 7 22 7 4 10 3 6 -3 -4 -6
3 -19 16 -29 12 -10 16 -12 10 -4 -18 20 -16 35 3 20 12 -11 15 -11 12 1 -2 8
-7 17 -13 21 -6 5 -5 8 2 8 11 0 35 -32 30 -41 -1 -2 0 -3 2 -1 2 1 14 -6 25
-15 18 -15 18 -14 -1 8 -26 29 -28 36 -10 36 6 0 34 3 60 7 33 5 47 3 42 -4
-3 -5 -2 -10 4 -10 5 0 11 5 13 11 5 16 50 17 66 2 7 -7 18 -13 25 -13 6 0 3
6 -7 13 -14 10 -15 14 -5 15 66 7 84 6 84 -5 0 -6 3 -14 6 -18 4 -3 6 4 5 16
0 12 5 24 13 27 8 2 11 1 8 -4 -3 -5 7 -18 22 -28 l26 -20 -18 21 c-16 18 -16
21 -2 33 9 7 15 9 14 4 -1 -5 -1 -15 0 -23 1 -12 4 -11 14 3 7 9 19 16 27 14
8 -2 14 3 12 10 -1 8 2 11 7 7 6 -3 7 -13 4 -22 -4 -11 -3 -14 5 -9 7 4 12 15
12 24 0 13 2 13 14 -4 8 -10 18 -16 22 -11 4 4 2 7 -5 7 -7 0 -9 5 -6 10 5 8
11 7 21 -1 11 -9 14 -8 14 2 0 12 2 12 9 1 7 -11 9 -11 14 2 4 9 13 13 22 10
8 -3 12 -11 8 -18 -4 -6 1 -5 10 3 9 7 14 18 10 24 -3 6 -1 7 6 3 6 -4 9 -12
6 -17 -3 -5 1 -6 9 -3 11 4 14 0 11 -14 -2 -12 3 -26 11 -32 7 -7 11 -17 7
-23 -3 -6 -1 -7 6 -3 9 6 9 11 -1 23 -18 23 -18 37 3 64 12 15 17 17 13 7 -7
-21 11 -24 19 -4 5 11 13 13 36 6 25 -7 29 -6 23 8 -5 15 -4 16 13 2 11 -9 16
-10 11 -2 -4 6 -3 12 3 12 5 0 12 -6 14 -12 3 -8 6 -6 6 4 1 11 6 15 16 12 13
-5 13 -9 3 -23 -11 -14 -11 -14 3 -4 9 7 19 9 23 5 4 -4 7 -2 6 3 -1 6 -2 17
-1 25 1 13 3 13 10 0 6 -8 7 -19 3 -25 -3 -5 2 -4 11 4 20 16 23 25 5 15 -7
-4 -9 -3 -5 1 4 5 14 10 22 12 35 7 41 9 54 17 9 6 12 5 8 -1 -4 -6 4 -10 18
-10 15 0 22 4 18 11 -3 6 0 6 8 -2 18 -16 29 -15 29 3 0 8 4 15 10 15 5 0 7
-6 4 -13 -3 -8 1 -14 9 -14 8 0 14 7 13 15 0 8 5 17 13 20 10 3 13 -1 8 -19
l-6 -24 16 22 c19 28 64 32 58 5 -2 -11 3 -18 14 -18 10 0 18 6 18 12 0 7 -7
10 -16 6 -9 -3 -13 -2 -9 3 4 4 3 13 -2 20 -7 8 -5 12 5 12 8 0 15 -5 15 -11
0 -6 5 -3 11 6 5 10 16 15 25 11 11 -4 12 -9 3 -22 -6 -9 -1 -5 13 9 30 30 45
35 66 18 12 -10 14 -10 8 0 -5 8 -1 12 12 12 10 0 22 3 26 7 14 15 35 11 30
-5 -3 -10 1 -7 7 5 7 13 18 23 26 23 8 0 11 -5 7 -11 -5 -8 -1 -8 13 0 11 6
24 7 28 3 5 -4 5 2 1 12 -5 15 -4 17 7 8 10 -8 20 -8 39 2 20 11 29 11 39 2 9
-8 11 -7 6 6 -4 12 -2 15 8 11 8 -3 12 -10 8 -16 -3 -6 -1 -7 5 -3 7 4 12 15
13 24 0 11 3 12 6 5 2 -7 9 -13 14 -13 6 0 7 4 4 10 -3 5 1 10 10 10 10 0 13
-5 9 -12 -4 -7 6 -3 22 8 18 13 43 20 66 20 29 -1 35 1 26 11 -8 11 -7 12 7 7
13 -5 16 -4 10 5 -6 10 -3 11 13 2 16 -8 21 -7 26 5 5 13 9 14 21 4 8 -7 12
-17 8 -23 -3 -6 -1 -7 5 -3 9 5 9 13 1 27 -10 19 -9 20 11 9 11 -6 17 -16 14
-22 -4 -6 -3 -8 4 -5 5 4 8 17 5 30 -4 18 -3 19 6 7 7 -10 14 -11 19 -5 4 6
16 11 27 10 11 0 26 7 32 15 11 13 14 13 23 0 7 -12 10 -12 10 -1 0 8 6 11 16
7 11 -4 15 -2 11 8 -4 10 0 14 13 11 11 -2 24 4 30 13 9 15 10 14 5 -4 -3 -14
1 -26 12 -35 15 -11 16 -11 6 1 -20 22 -15 32 10 20 20 -10 20 -10 5 3 -10 8
-18 17 -18 21 0 11 28 6 33 -6 3 -8 6 -6 6 5 1 14 5 16 20 7 29 -15 38 -12 15
5 -10 8 -14 15 -9 15 6 1 19 4 30 6 27 7 37 7 55 3 8 -2 14 1 15 8 0 16 15 29
15 13 0 -7 3 -10 7 -7 3 4 15 0 25 -10 11 -9 18 -11 18 -5 0 7 -4 12 -9 12 -5
0 -12 7 -15 16 -3 8 -2 13 3 9 5 -3 11 -2 14 2 2 5 2 2 1 -4 -2 -7 1 -13 6
-13 6 0 10 8 10 18 0 14 2 15 10 2 7 -12 10 -12 10 -1 0 8 6 11 16 7 12 -5 15
-2 10 11 -4 10 -4 14 0 10 4 -4 14 -1 23 6 14 11 14 10 2 -5 -8 -11 -9 -18 -3
-18 6 0 14 5 18 11 3 6 15 9 25 6 16 -4 17 -2 7 16 -10 20 -10 21 5 8 12 -9
17 -10 17 -2 0 7 5 9 10 6 8 -5 7 -12 -2 -23 -12 -15 -11 -16 4 -3 10 7 16 17
13 21 -3 4 2 13 10 20 8 7 15 9 15 5 0 -4 6 -2 13 4 8 6 16 8 20 5 8 -9 48 6
42 16 -3 4 9 7 25 6 19 -1 30 3 30 11 0 17 20 17 21 1 0 -7 4 -4 8 6 7 18 9
18 31 -5 l24 -24 -19 30 c-10 17 -14 27 -10 23 4 -4 23 1 40 12 20 12 40 18
51 13 11 -4 15 -3 11 4 -5 7 1 9 15 5 16 -4 19 -2 13 8 -5 9 -4 11 3 6 7 -4
12 -2 12 4 0 7 6 10 13 7 6 -2 11 -10 9 -17 -3 -11 0 -11 12 0 17 13 22 25 7
16 -5 -3 -11 0 -14 8 -4 9 0 12 13 9 10 -3 21 0 25 7 5 8 10 8 20 0 11 -9 13
-8 10 9 -2 14 1 18 11 14 7 -3 12 -8 9 -12 -2 -4 2 -8 10 -8 8 0 12 4 9 9 -11
18 7 28 29 16 19 -10 21 -9 9 4 -15 18 -3 31 17 18 8 -4 10 -13 6 -21 -6 -11
-5 -11 5 -2 11 10 11 15 -1 29 -10 13 -10 16 -1 10 7 -4 19 -2 27 4 10 8 15 9
15 2 0 -6 9 -10 19 -9 11 0 17 5 15 9 -3 5 -11 5 -17 1 -7 -4 -6 0 2 10 15 19
46 23 56 7 3 -5 12 -10 18 -10 7 0 4 5 -6 11 -9 6 -15 15 -11 21 4 6 10 5 15
-3 7 -11 9 -10 9 3 0 12 5 15 15 11 10 -3 15 0 13 8 -2 10 6 13 30 11 17 -1
32 3 32 9 0 5 -5 7 -12 3 -7 -4 -8 -3 -4 5 4 6 12 9 17 6 5 -4 9 0 9 7 0 9 3
9 10 -2 9 -14 14 -7 11 13 -1 5 3 6 8 2 6 -3 18 3 27 14 10 11 24 17 32 13 11
-4 13 -1 7 9 -6 11 -5 11 5 2 10 -9 17 -7 32 10 11 12 17 16 13 10 -3 -7 -1
-13 4 -13 6 0 11 5 11 11 0 5 5 7 10 4 6 -3 10 -2 10 4 0 5 -6 12 -12 14 -10
4 -10 6 -1 6 6 1 15 -4 18 -9 4 -6 14 -1 24 11 14 17 20 19 26 9 5 -8 4 -11
-3 -6 -6 3 -13 2 -16 -2 -7 -11 40 -9 51 2 4 4 2 6 -6 4 -7 -2 -16 3 -18 10
-3 9 2 12 13 10 11 -2 18 2 16 10 -2 10 2 10 20 1 21 -11 22 -11 10 4 -12 14
-10 15 13 11 15 -3 24 -1 22 3 -3 4 2 15 11 23 14 13 15 13 10 -1 -6 -17 27
-24 37 -8 3 5 -1 6 -9 3 -9 -3 -16 -2 -16 4 0 5 9 12 21 15 12 3 18 10 15 15
-3 5 8 8 24 7 21 -1 30 4 34 18 4 18 7 19 22 6 16 -12 17 -12 11 3 -3 10 -2
20 3 23 6 4 10 1 10 -5 0 -6 5 -8 10 -5 6 4 8 11 5 16 -4 5 1 9 9 9 10 0 13
-6 10 -17 -5 -14 -4 -15 4 -4 6 8 8 20 5 27 -2 7 3 11 14 11 10 -1 17 3 16 9
-2 12 26 12 45 0 15 -9 12 15 -3 26 -9 7 7 11 48 11 14 0 15 2 5 15 -8 10 -8
13 -2 9 7 -4 17 0 24 8 10 12 16 13 29 3 9 -7 13 -9 9 -4 -9 11 30 48 43 41 5
-4 19 5 30 19 28 35 56 50 65 34 4 -7 4 -10 -1 -6 -4 4 -16 3 -27 -3 -14 -8
-17 -14 -9 -23 6 -7 7 -17 3 -21 -4 -5 -1 -5 6 -1 10 6 10 11 1 22 -8 10 -8
14 0 15 6 1 17 2 24 3 6 1 11 9 9 19 -2 13 2 17 14 15 11 -2 23 7 31 22 11 22
18 21 14 -3 -1 -5 3 -6 9 -2 5 3 10 13 10 21 0 9 5 12 12 8 8 -5 9 -2 4 11 -5
14 -4 16 8 6 11 -9 15 -8 20 6 6 15 8 15 16 3 9 -13 10 -13 11 0 1 8 1 19 0
24 -1 5 5 3 14 -4 13 -11 14 -10 8 6 -6 16 -5 17 9 6 13 -10 18 -10 24 -1 4 8
3 9 -4 5 -8 -4 -10 -2 -6 8 3 9 12 12 22 9 9 -4 14 -3 10 2 -11 12 11 35 28
28 7 -3 11 -10 7 -16 -3 -6 -1 -7 6 -3 9 6 9 11 0 22 -7 9 -8 14 -3 13 21 -4
35 2 29 11 -4 6 -1 9 7 8 7 -2 12 3 10 10 -1 8 2 11 7 8 5 -4 12 -2 16 4 3 5
15 10 26 10 11 0 18 4 15 8 -2 4 0 14 6 22 8 12 9 12 4 -3 -5 -14 -2 -16 13
-8 10 6 22 7 26 3 5 -4 5 -1 1 6 -4 7 -12 9 -18 6 -7 -5 -8 -2 -4 5 5 7 14 10
21 7 7 -2 15 4 18 13 3 13 12 18 31 16 14 -2 24 1 20 6 -3 5 -10 6 -16 3 -7
-4 -8 -2 -4 4 4 7 15 12 25 12 10 0 26 10 35 22 l17 23 -6 -25 c-5 -19 -4 -22
4 -10 6 8 11 23 11 32 0 9 4 20 10 23 5 3 7 0 4 -9 -6 -16 19 -17 33 -1 4 4 2
5 -4 1 -8 -4 -13 -1 -13 8 0 9 7 13 19 11 14 -3 18 1 14 11 -3 9 1 14 12 14 9
0 13 -4 10 -10 -3 -5 -1 -10 5 -10 7 0 9 8 5 22 -6 17 -4 20 9 15 10 -4 15 -3
11 3 -3 6 -1 10 5 10 6 0 8 5 4 13 -6 9 -5 9 8 -1 13 -10 18 -9 29 5 13 17 13
17 -6 3 -19 -14 -19 -14 -6 3 8 10 21 15 29 12 12 -4 13 -3 2 10 -11 13 -10
14 5 9 12 -5 16 -4 11 4 -4 7 1 10 15 7 18 -4 19 -2 7 12 -9 12 -9 15 0 9 7
-4 12 -2 12 4 0 6 4 9 9 5 6 -3 8 -15 6 -27 -3 -11 -1 -17 3 -14 4 4 8 16 8
27 1 10 2 24 3 29 0 6 12 15 26 22 13 6 22 15 19 20 -3 5 -2 8 3 7 21 -4 34 2
27 13 -4 6 -3 8 4 4 6 -3 15 2 21 11 5 10 13 17 18 16 4 0 7 3 6 7 -2 5 7 7
18 5 17 -3 19 -1 9 10 -8 10 -8 15 1 21 8 4 9 3 5 -4 -13 -21 5 -13 34 15 16
15 27 30 24 35 -3 4 3 5 12 1 12 -4 15 -3 10 6 -4 6 -4 11 1 10 20 -3 33 2 30
12 -1 6 4 14 11 16 8 3 10 -2 6 -14 -5 -17 -5 -17 6 1 10 15 9 20 -1 27 -8 5
-9 9 -3 9 5 0 16 -6 23 -12 11 -11 12 -10 6 1 -6 10 -4 13 7 9 8 -4 15 0 15 8
0 7 -5 10 -10 7 -6 -3 -7 -1 -3 5 4 7 14 12 22 12 8 0 14 8 14 18 0 14 2 15
10 2 9 -13 10 -13 11 0 1 8 1 19 0 24 -1 5 6 3 15 -5 10 -8 15 -9 12 -4 -4 6
-3 17 2 25 8 13 13 13 32 1 18 -10 20 -10 11 0 -7 7 -13 20 -13 29 0 9 3 11 8
5 9 -13 32 -17 32 -6 0 5 -6 11 -12 14 -7 2 -9 8 -5 13 10 11 43 -10 39 -26
-1 -6 2 -9 8 -5 6 4 4 15 -6 31 -9 13 -12 25 -8 26 5 0 14 2 19 3 6 2 15 3 20
4 6 1 3 6 -5 12 -12 9 -11 10 8 6 23 -5 31 7 10 17 -7 3 2 4 20 2 18 -3 30 0
26 5 -3 5 -9 7 -14 4 -5 -3 -12 -1 -15 5 -4 6 -3 10 2 9 18 -3 36 1 30 8 -4 3
0 15 9 25 13 14 20 15 31 7 11 -9 12 -8 7 4 -5 13 0 16 26 12 18 -2 29 -1 25
3 -3 4 -14 7 -22 7 -9 0 -18 7 -20 15 -4 12 -3 13 5 1 8 -11 12 -9 22 8 7 15
17 20 27 17 14 -6 14 -4 2 10 -13 16 -12 16 11 4 22 -12 24 -11 13 2 -13 15
-8 28 9 28 5 0 6 -5 2 -12 -5 -7 -3 -8 5 -4 7 5 10 14 7 22 -3 8 1 14 10 14 8
0 12 4 9 10 -6 9 8 15 29 11 5 -1 6 4 3 12 -3 7 1 14 9 14 7 0 10 -5 7 -11 -3
-6 0 -5 8 2 12 11 12 14 -1 22 -11 7 -11 10 -2 10 7 0 11 4 7 9 -3 5 -1 13 5
16 6 4 10 3 9 -2 -5 -27 5 -21 31 21 17 26 35 44 40 41 6 -3 10 1 10 10 0 11
5 15 15 11 8 -3 14 0 12 7 -1 7 6 11 15 11 14 -1 15 2 8 17 -9 15 -8 17 7 12
10 -3 15 -3 11 1 -4 5 4 18 17 31 14 12 21 26 17 31 -4 4 1 2 10 -5 15 -11 17
-10 13 8 -5 25 -1 26 20 5 15 -15 15 -14 9 10 -4 16 -2 26 5 26 6 0 10 6 8 12
-1 8 6 12 17 10 10 -2 15 1 11 7 -4 7 5 9 24 7 17 -2 28 1 25 6 -3 5 -12 7
-20 4 -7 -3 -16 -1 -19 3 -6 11 23 23 36 16 5 -4 6 1 3 9 -4 10 6 27 26 46 18
16 29 30 25 30 -4 0 -2 6 5 14 12 15 44 11 35 -4 -3 -5 -1 -11 4 -14 10 -7 9
9 -4 37 -4 10 -4 21 0 25 4 4 10 1 12 -5 3 -7 9 -13 14 -13 11 0 8 22 -4 31
-5 4 4 10 20 14 26 7 26 8 8 15 -19 8 -19 9 3 9 13 1 21 5 17 10 -3 5 4 13 15
16 18 6 19 9 8 22 -11 14 -11 15 8 5 18 -10 21 -9 20 6 0 10 5 16 13 14 12 -3
12 0 1 13 -11 13 -10 14 5 8 15 -5 17 -3 12 12 -6 15 -5 16 8 5 13 -11 14 -10
9 5 -6 14 -4 16 6 10 10 -6 12 -3 8 13 -4 16 -2 19 10 15 11 -5 13 -3 7 7 -6
9 -4 12 7 8 11 -5 14 1 13 23 -1 23 1 27 12 18 10 -9 13 -8 13 1 0 9 4 9 17
-1 15 -13 15 -12 3 10 -11 22 -10 23 5 17 15 -5 16 -4 6 8 -9 11 -9 16 0 21 6
4 16 1 21 -6 8 -11 9 -10 5 3 -3 9 -1 19 6 22 9 3 9 5 0 5 -7 1 -13 6 -13 12
0 6 6 9 14 6 8 -3 20 2 28 11 11 13 11 15 -2 8 -9 -4 -8 -1 3 7 9 8 17 20 17
27 0 7 7 10 16 6 15 -6 15 -4 3 11 -8 9 -9 14 -3 10 11 -6 40 39 35 56 -1 5 3
6 9 2 8 -5 7 -12 -2 -23 -12 -15 -11 -16 4 -3 10 7 15 17 12 22 -3 5 0 9 6 9
6 0 8 5 5 10 -3 6 4 10 17 11 22 0 22 1 3 9 -17 7 -17 9 -2 9 9 1 17 8 17 16
0 8 7 15 15 15 9 0 12 6 9 15 -4 8 1 17 10 21 9 3 14 9 12 13 -2 3 3 15 11 26
15 20 15 20 8 -2 -4 -14 -2 -23 5 -23 6 0 9 4 6 8 -3 5 1 20 9 35 8 15 11 27
7 27 -4 0 1 5 11 11 9 5 17 18 17 27 0 15 2 15 10 2 8 -13 10 -12 11 5 1 11 1
24 0 29 -1 5 5 6 13 3 11 -4 13 -1 9 10 -5 13 -2 15 12 10 16 -7 16 -5 4 10
-12 15 -12 16 3 11 18 -7 33 16 22 34 -4 6 2 8 17 3 24 -7 24 -7 4 10 -11 9
-14 13 -7 10 9 -5 15 1 19 14 3 12 9 21 14 21 5 0 9 5 9 11 0 5 -5 7 -12 3 -7
-4 -8 -3 -4 5 4 6 10 9 14 7 4 -2 15 7 25 20 13 17 14 24 5 24 -7 1 -3 6 10
13 12 7 19 16 16 20 -4 4 -2 7 5 7 7 0 9 5 5 12 -5 7 -3 8 6 3 10 -6 12 -3 8
13 -4 12 -3 20 1 17 5 -2 17 3 27 11 10 9 13 13 6 9 -6 -3 -12 -1 -12 4 0 6 7
11 15 11 9 0 12 6 9 15 -4 8 1 17 10 21 9 3 13 10 10 15 -3 5 2 12 10 15 9 3
14 10 11 14 -3 5 -1 11 5 15 6 4 8 11 5 16 -3 5 1 6 10 3 12 -5 13 -10 4 -20
-8 -9 -8 -18 1 -31 10 -16 10 -16 5 4 -3 12 -2 24 3 27 5 3 7 16 5 30 -3 13 1
27 8 31 8 6 10 4 4 -5 -5 -9 -4 -11 4 -6 9 6 9 11 -1 24 -11 13 -11 14 1 7 11
-6 13 -4 8 8 -4 11 -2 14 7 11 7 -3 19 3 27 13 13 16 12 17 -3 4 -23 -18 -23
-10 1 17 10 12 21 19 25 15 3 -3 6 -4 6 0 0 3 -7 13 -16 22 -16 15 -16 16 2
13 13 -2 20 4 22 20 2 12 8 22 13 22 6 0 8 -4 4 -9 -3 -5 0 -13 6 -17 8 -4 9
-3 5 4 -4 7 -2 12 5 12 9 0 9 4 -2 13 -8 6 -12 11 -10 9 3 -1 13 17 22 40 10
24 18 37 18 31 1 -7 6 -13 12 -13 5 0 8 4 5 9 -3 5 1 14 9 21 12 10 13 16 3
28 -10 13 -10 14 0 8 11 -6 17 10 13 36 0 4 9 5 20 3 17 -3 18 -1 9 9 -8 10
-8 15 0 18 6 2 12 13 13 25 0 12 6 19 12 15 16 -10 36 -11 29 -1 -3 5 -10 7
-15 4 -5 -4 -9 1 -9 10 0 8 7 18 16 22 9 3 14 13 11 24 -3 10 0 17 7 16 6 -1
10 6 8 16 -2 12 4 17 20 17 13 0 18 4 13 8 -6 4 -10 13 -9 20 1 6 2 17 3 22 0
6 7 10 15 10 9 0 13 9 11 25 -2 22 0 23 13 13 11 -9 14 -9 9 -1 -4 7 0 17 10
23 15 9 14 10 -7 5 -24 -6 -24 -5 -4 7 12 7 19 19 16 27 -2 8 0 11 6 7 5 -3
13 1 16 10 3 8 2 12 -4 9 -6 -3 -10 -1 -10 4 0 6 6 11 14 11 8 0 18 5 22 12 4
6 3 8 -4 4 -6 -3 -4 7 4 24 9 17 19 28 24 25 5 -3 12 0 16 6 4 8 3 9 -4 5 -16
-10 -15 7 1 23 10 11 10 13 0 7 -7 -4 -13 -2 -13 3 0 6 7 11 17 11 9 0 14 3
10 6 -3 4 2 14 11 23 10 9 12 12 5 7 -10 -6 -12 -4 -7 8 3 9 10 16 15 16 5 0
7 12 5 26 -4 22 -3 24 10 13 12 -10 13 -9 8 6 -5 12 -4 16 3 12 12 -8 12 11 0
30 -5 8 -1 11 13 8 11 -2 23 1 26 7 4 6 3 8 -3 5 -6 -4 -13 0 -17 8 -6 18 9
29 27 19 7 -5 6 0 -3 11 -14 17 -13 18 5 11 16 -6 17 -5 8 5 -10 10 -9 15 5
26 9 8 11 12 5 8 -7 -3 -13 -2 -13 3 0 15 13 22 24 12 8 -6 12 -3 12 10 0 10
-4 16 -8 14 -11 -7 -10 4 3 27 5 11 14 17 18 14 5 -2 7 9 6 26 -2 24 2 33 17
37 15 4 17 7 6 13 -11 7 -11 9 1 9 7 0 11 6 8 14 -4 10 -1 13 8 10 9 -4 13 2
11 20 -2 18 2 26 13 26 14 0 14 2 1 10 -10 6 -11 10 -2 10 6 0 12 5 12 11 0 5
-5 7 -12 3 -7 -4 -8 -3 -4 4 4 7 14 12 21 12 9 0 12 6 8 17 -5 12 -3 14 7 8 9
-5 11 -4 6 4 -4 6 -2 19 6 28 11 15 11 16 -7 10 -19 -7 -19 -7 -1 8 10 8 24
12 30 8 6 -3 5 0 -1 8 -7 7 -13 17 -13 22 0 4 6 5 13 1 7 -5 6 0 -3 11 -9 11
-10 16 -2 11 7 -4 12 -1 12 8 0 9 5 16 11 16 8 0 7 6 -2 17 -12 15 -12 16 5
10 17 -7 17 -6 5 10 -9 11 -10 14 -1 9 12 -7 17 10 13 43 -2 7 2 10 8 6 6 -3
11 1 11 10 0 9 5 13 11 9 8 -5 8 -1 0 14 -9 16 -7 21 8 25 17 4 18 10 12 39
-8 33 -7 35 15 32 13 -1 24 2 24 8 0 6 -7 8 -14 5 -10 -4 -13 -1 -9 8 3 8 10
12 17 8 6 -4 5 1 -3 10 -12 16 -8 22 12 18 5 -1 6 3 3 8 -4 5 0 12 6 15 7 3 3
3 -9 0 -13 -3 -23 -1 -23 5 0 6 3 10 8 10 18 -3 35 2 29 8 -4 3 -1 13 6 21 10
13 9 14 -1 8 -11 -7 -12 -4 -3 11 6 11 7 24 3 28 -4 5 1 5 10 2 10 -3 20 -1
24 5 4 6 3 8 -3 5 -6 -4 -13 4 -15 16 -4 20 -1 23 23 22 16 -1 26 2 23 7 -4 5
-13 7 -21 4 -11 -5 -13 -1 -7 17 4 12 7 28 7 35 0 6 3 12 7 12 3 0 12 -6 20
-12 12 -11 12 -10 2 3 -9 12 -9 19 1 29 9 10 9 11 0 6 -8 -5 -13 -1 -13 9 0 9
5 13 10 10 6 -3 10 -2 10 4 0 5 -6 12 -12 14 -9 4 -7 6 3 6 11 1 15 9 13 27
-2 18 2 24 11 20 7 -2 19 3 26 12 11 14 11 15 -1 5 -20 -18 -44 15 -24 34 7 7
16 13 20 13 5 0 3 -5 -4 -12 -7 -7 -12 -16 -12 -22 0 -5 6 -1 14 9 14 19 11
49 -4 40 -5 -3 -2 8 6 25 9 17 20 27 26 24 7 -5 8 -2 3 6 -9 15 -15 73 -7 65
3 -3 11 0 18 6 10 8 11 16 3 30 -7 13 -6 19 1 19 6 0 8 5 4 12 -5 8 -2 9 9 5
9 -3 19 -2 22 4 4 5 3 9 -2 8 -20 -3 -34 2 -28 11 3 5 13 6 23 3 14 -5 14 -3
-2 9 -15 12 -16 17 -6 23 9 5 11 4 6 -3 -10 -17 -1 -15 14 4 11 12 11 15 -1
12 -8 -2 -12 3 -10 12 2 8 4 20 4 27 0 7 5 9 10 6 6 -4 8 2 5 15 -4 12 -2 25
4 28 7 4 6 9 -1 14 -9 5 -7 11 5 21 10 8 15 9 11 2 -4 -6 -3 -15 3 -18 6 -4 9
-1 8 7 -2 7 3 12 10 10 8 -1 11 2 7 8 -3 6 -11 8 -16 5 -5 -4 -9 -1 -9 4 0 6
6 11 13 11 8 0 7 3 -3 9 -8 6 -19 7 -24 4 -5 -4 0 7 12 24 24 34 28 48 10 37
-7 -5 -8 -3 -4 5 5 7 14 10 22 7 7 -3 16 0 20 6 4 7 3 8 -4 4 -7 -4 -12 -1
-12 9 0 10 -5 13 -12 9 -7 -4 -2 5 12 21 14 16 20 25 14 22 -7 -4 -11 4 -10
22 1 16 4 27 8 25 3 -2 11 10 17 26 7 22 7 29 -1 24 -6 -4 -9 -1 -6 7 3 8 10
14 16 14 5 0 14 4 19 9 5 5 3 6 -4 2 -9 -5 -13 1 -13 21 0 22 2 25 10 13 6 -9
10 -10 10 -3 0 6 -4 14 -9 17 -11 7 -4 67 11 81 8 7 9 6 3 -5 -8 -13 -7 -13
11 0 29 22 30 24 12 17 -21 -7 -36 12 -18 23 16 10 17 15 2 32 -10 12 -9 18 2
28 9 6 20 9 25 6 5 -4 13 -1 17 5 4 7 3 9 -4 5 -6 -3 -20 3 -31 16 -24 25 -20
38 4 14 19 -19 29 -21 19 -4 -11 18 -11 107 0 100 5 -3 6 3 2 13 -5 14 -3 15
6 7 10 -8 13 -5 13 13 0 15 -4 20 -10 15 -7 -6 -11 -2 -11 10 0 10 4 16 8 14
7 -4 10 10 7 32 0 4 5 11 13 15 7 5 8 9 2 9 -6 0 -11 7 -11 15 0 9 6 14 13 11
10 -4 11 1 3 21 -8 22 -7 24 8 19 14 -6 15 -5 6 5 -9 9 -9 17 -2 32 8 14 8 18
0 13 -14 -9 -14 0 -1 24 6 12 7 21 0 25 -5 3 -7 12 -4 20 4 8 10 13 14 10 5
-3 12 0 16 6 4 8 3 9 -4 5 -7 -4 -12 -2 -12 4 0 6 -5 8 -12 4 -9 -6 -9 -3 0 9
8 9 10 22 6 28 -5 8 -3 9 5 5 7 -5 10 -15 6 -25 -4 -11 -3 -13 4 -6 7 7 8 22
2 43 -6 20 -6 30 0 27 13 -8 11 9 -2 22 -8 8 -4 16 13 28 13 10 16 15 6 12 -9
-3 -19 1 -22 9 -8 21 -8 21 10 28 14 5 15 4 4 -9 -8 -10 -9 -15 -1 -15 11 0
15 13 12 38 -1 6 4 12 10 12 7 0 9 3 6 6 -4 4 -14 1 -23 -7 -16 -13 -16 -12
-6 7 6 12 8 25 4 29 -4 5 -2 6 3 3 6 -3 16 1 24 9 12 13 11 14 -8 8 -19 -6
-20 -4 -11 20 5 14 9 29 9 33 -1 4 -1 24 0 45 1 36 2 37 24 27 21 -11 22 -11
2 5 -21 17 -31 65 -14 65 6 0 7 -5 3 -12 -4 -7 -3 -8 4 -4 6 4 9 13 6 21 -4 8
-11 12 -18 8 -6 -4 -5 1 2 10 8 9 11 21 7 27 -3 5 -1 10 4 10 6 0 11 5 11 11
0 5 -4 7 -10 4 -7 -4 -7 3 0 19 7 19 6 26 -3 26 -8 0 -7 4 3 10 8 5 11 10 6
10 -5 0 -3 7 4 15 10 13 9 19 -6 37 -11 12 -13 18 -5 13 11 -6 13 -4 8 8 -3
10 -2 17 3 17 6 0 10 -4 10 -10 0 -5 5 -10 12 -10 6 0 3 8 -7 20 -10 11 -23
17 -29 13 -8 -5 -7 -2 1 8 6 8 10 29 8 47 -1 18 2 35 8 39 6 4 7 1 2 -7 -5 -8
-4 -11 2 -7 6 4 9 23 6 43 -4 27 -2 34 8 29 8 -5 10 -4 5 4 -4 6 -11 9 -16 6
-5 -3 -11 -1 -15 5 -3 5 1 10 9 10 8 0 18 5 22 12 5 7 3 8 -6 3 -10 -6 -12 -1
-8 19 3 15 1 26 -5 26 -6 0 -3 6 8 13 12 10 14 16 7 21 -7 4 -12 18 -12 32 0
17 4 23 12 18 7 -5 8 -3 2 7 -13 21 -14 39 -1 39 7 0 5 4 -3 10 -13 8 -13 13
-2 31 8 11 9 18 3 14 -15 -9 -14 8 2 24 10 11 10 13 0 7 -16 -9 -17 10 -3 19
8 5 8 11 0 20 -13 15 -10 46 5 57 6 5 5 8 -2 8 -7 0 -13 5 -13 11 0 5 6 7 13
3 9 -6 9 -5 0 8 -7 8 -10 18 -6 22 15 14 12 38 -4 32 -13 -5 -14 -4 -3 9 7 8
9 15 4 15 -5 0 -2 5 6 10 8 5 10 10 5 10 -15 0 -16 43 -2 52 9 6 9 8 0 8 -7 0
-13 7 -13 15 0 8 5 15 11 15 6 0 3 7 -5 16 -18 17 -21 28 -6 19 11 -7 9 23 -2
41 -4 6 -1 23 7 38 8 14 10 24 5 21 -6 -4 -10 1 -10 9 0 9 6 16 13 17 6 0 3 4
-8 9 -11 5 -14 9 -7 9 9 1 10 6 2 20 -13 25 -13 34 1 25 7 -4 6 2 -2 17 -12
23 -11 23 7 9 18 -14 18 -14 2 6 -20 22 -24 39 -8 29 6 -3 7 1 4 9 -3 9 -11
13 -18 9 -6 -4 -5 1 3 10 7 9 9 17 3 17 -12 0 -13 48 -1 56 5 3 9 11 9 17 0 7
-4 6 -10 -3 -8 -12 -10 -9 -10 13 0 20 4 26 13 21 6 -4 4 2 -6 13 -14 16 -15
22 -5 27 8 3 9 8 3 11 -5 3 -9 30 -8 60 1 31 -2 53 -7 50 -5 -3 -12 -1 -15 5
-4 6 -1 9 6 8 19 -5 22 20 2 25 -17 4 -17 5 0 6 14 1 16 5 7 20 -5 11 -11 46
-12 79 -1 38 -6 58 -13 55 -5 -3 -4 0 3 8 16 17 16 32 0 23 -7 -4 -10 -4 -6 1
4 4 3 14 -4 22 -8 10 -8 12 4 8 9 -4 15 0 15 10 0 10 -6 14 -16 10 -8 -3 -12
-3 -8 1 4 4 2 13 -4 21 -8 8 -8 13 -1 13 6 0 12 -3 15 -7 2 -5 2 -1 -1 7 -3 8
-5 24 -5 35 -1 11 -6 23 -11 27 -7 5 -6 8 3 8 11 0 9 4 -5 15 -10 9 -13 14 -5
13 16 -4 24 29 9 39 -6 3 -8 1 -4 -5 3 -6 1 -14 -5 -18 -7 -4 -9 -3 -5 4 3 6
2 14 -4 17 -8 5 -7 11 1 22 10 12 10 16 -2 24 -10 6 -11 9 -1 9 8 0 10 5 5 13
-10 16 -13 38 -4 32 4 -2 8 2 8 10 0 8 -4 12 -9 9 -4 -3 -8 4 -8 16 0 13 4 19
11 14 8 -4 8 -1 1 12 -5 11 -8 27 -7 36 2 10 -2 21 -7 25 -7 4 -8 1 -3 -7 5
-8 4 -11 -2 -7 -6 4 -10 30 -10 58 0 30 -5 54 -13 59 -7 5 -9 16 -5 30 5 15 3
20 -3 16 -7 -4 -8 3 -2 24 6 22 5 34 -6 45 -12 12 -12 15 -2 15 8 0 9 3 2 8
-16 11 -27 45 -11 36 6 -4 3 3 -8 16 -11 13 -15 20 -8 17 8 -5 11 0 10 13 -1
11 -5 20 -10 20 -5 0 -3 8 4 17 8 9 9 14 3 10 -19 -11 -25 21 -6 33 16 11 16
11 0 6 -20 -6 -34 10 -16 17 10 4 10 8 -1 15 -9 7 -10 12 -2 16 6 4 11 13 11
19 0 7 -4 6 -11 -3 -8 -12 -10 -8 -7 17 3 19 0 31 -6 30 -6 -1 -11 10 -12 25
-1 15 -7 35 -15 45 -12 15 -12 16 3 10 12 -4 15 -2 11 8 -3 8 -9 13 -13 10 -4
-3 -11 2 -14 11 -5 12 -2 15 11 10 17 -6 17 -5 1 7 -13 11 -15 16 -6 25 9 9 9
12 -1 12 -8 0 -10 7 -6 21 5 15 4 19 -4 15 -10 -6 -16 13 -12 38 1 4 -3 14 -9
21 -6 8 -10 19 -9 27 1 7 1 20 0 28 -1 13 -2 13 -11 0 -6 -9 -10 -10 -10 -3 0
6 4 14 10 18 12 7 2 36 -19 54 -15 12 -14 13 1 8 10 -3 20 -2 23 4 4 5 1 8 -7
7 -7 -2 -12 3 -10 10 1 6 -3 12 -9 12 -6 0 -9 9 -6 20 3 11 1 20 -3 20 -5 0
-7 9 -5 20 2 13 -2 20 -11 20 -8 0 -14 5 -14 10 0 6 5 10 12 10 6 0 3 10 -8
22 -10 12 -13 18 -6 14 6 -4 12 -2 12 3 0 6 -5 11 -11 11 -6 0 -9 7 -5 15 3 8
0 15 -6 15 -7 0 -6 5 2 15 10 12 8 16 -11 24 -14 6 -17 10 -9 11 12 0 11 3 -3
11 -14 8 -16 14 -6 25 9 11 9 14 -1 14 -9 0 -9 4 1 17 8 9 9 14 3 10 -7 -4
-14 0 -17 7 -3 8 -1 17 6 20 7 3 6 5 -3 5 -9 1 -17 12 -18 27 -1 17 2 23 10
18 7 -4 8 -3 4 4 -4 7 -14 12 -22 12 -17 0 -19 26 -1 33 7 3 5 6 -5 6 -12 1
-15 6 -11 18 4 11 3 14 -5 9 -8 -5 -12 1 -12 16 0 13 -6 30 -12 37 -10 11 -10
13 0 7 6 -4 12 -2 12 3 0 6 -7 11 -15 11 -8 0 -15 5 -15 11 0 5 4 7 10 4 6 -3
7 1 4 9 -3 9 -11 13 -17 9 -6 -4 -7 -1 -3 6 5 7 0 22 -11 34 -18 21 -18 21 1
7 18 -14 19 -14 7 8 -7 13 -10 30 -7 38 3 9 1 12 -4 9 -13 -8 -33 43 -27 67 4
13 -1 18 -16 19 -21 0 -21 1 -2 9 17 7 17 9 3 9 -10 1 -18 6 -18 12 0 5 4 7
10 4 5 -3 7 0 4 9 -3 8 -12 17 -21 20 -8 4 -13 13 -10 20 3 8 0 20 -8 26 -8 6
-11 18 -8 26 3 8 0 14 -7 14 -10 0 -10 3 0 15 12 14 5 20 -21 17 -3 -1 -6 5
-6 13 0 8 5 11 11 8 6 -3 5 0 -1 8 -7 7 -13 17 -13 22 0 4 6 5 13 1 7 -4 9 -3
4 2 -5 5 -14 9 -19 9 -6 0 -13 6 -16 14 -3 8 0 11 7 7 6 -4 11 -2 11 3 0 6 -8
11 -17 11 -14 0 -15 2 -5 9 11 6 10 9 -5 13 -14 4 -18 13 -17 42 1 20 -3 39
-9 43 -5 3 -7 1 -3 -5 3 -6 2 -13 -3 -16 -5 -4 -8 5 -6 19 1 14 -2 25 -8 25
-5 0 -7 9 -4 20 3 10 2 19 -2 18 -18 -2 -22 4 -11 17 12 15 4 21 -23 16 -5 -1
-6 3 -2 9 3 6 12 8 18 4 7 -3 4 1 -7 10 -10 8 -15 19 -11 25 3 6 -1 11 -11 11
-14 0 -15 2 -3 17 8 10 9 14 2 10 -6 -4 -14 -3 -18 3 -3 5 -1 10 4 10 6 0 11
5 11 10 0 6 -3 9 -7 9 -5 -1 -15 -1 -23 0 -13 1 -13 2 0 11 11 7 11 10 2 10
-7 0 -10 5 -7 10 3 6 2 10 -4 10 -9 0 -24 31 -26 55 0 6 -7 9 -15 7 -11 -3
-11 0 0 12 8 10 9 16 2 16 -6 0 -9 7 -6 15 5 11 2 13 -11 9 -15 -6 -16 -4 -5
16 8 15 8 20 1 16 -6 -4 -11 -2 -11 3 0 20 -3 26 -19 39 -9 8 -10 11 -4 7 9
-4 11 -1 7 9 -3 9 -11 13 -18 9 -6 -4 -5 1 3 11 8 9 10 16 4 14 -6 -2 -11 1
-11 6 0 5 -4 12 -9 15 -4 3 -15 15 -23 25 -13 18 -13 19 0 11 12 -6 13 -5 3 6
-7 7 -13 20 -13 29 0 8 -8 20 -19 27 -20 13 -37 57 -18 47 7 -3 3 2 -7 10 -11
9 -24 16 -30 16 -6 0 -6 4 1 11 14 14 6 39 -13 39 -8 0 -14 5 -14 11 0 5 6 7
13 4 6 -4 2 2 -10 13 -12 11 -19 22 -16 26 3 3 -2 8 -11 12 -13 5 -14 9 -5 20
9 11 9 14 0 14 -7 0 -9 5 -6 10 3 6 1 10 -5 10 -6 0 -8 5 -4 12 5 7 2 9 -9 5
-11 -4 -14 -2 -10 9 3 7 0 14 -7 14 -10 0 -10 3 0 15 11 13 10 14 -5 9 -12 -5
-16 -4 -12 3 4 6 0 14 -8 17 -8 3 -15 9 -14 13 4 26 -3 43 -18 43 -15 0 -16 2
-3 10 9 6 10 10 3 10 -6 0 -15 9 -18 20 -4 11 -11 18 -16 15 -5 -3 -6 2 -2 11
5 13 3 15 -8 9 -12 -8 -12 -6 -1 8 12 14 11 16 -7 12 -14 -2 -19 0 -15 7 4 6
-2 18 -12 26 -16 13 -17 14 -1 9 24 -9 21 -2 -10 28 -15 14 -24 25 -19 25 6 0
-3 14 -20 32 -16 18 -21 26 -11 19 22 -17 22 -10 -2 17 -10 12 -22 18 -27 14
-4 -4 -2 2 6 13 8 11 11 17 6 13 -14 -12 -35 15 -24 30 8 9 5 12 -11 12 -11 0
-20 3 -20 8 3 18 -3 31 -27 57 -14 15 -23 34 -20 42 4 9 2 11 -6 7 -8 -5 -9
-2 -4 11 6 16 4 16 -11 4 -15 -12 -16 -12 -10 4 4 12 1 17 -11 17 -13 0 -14 2
-4 9 11 6 8 13 -12 28 -14 11 -22 23 -19 27 4 3 -2 13 -13 22 -10 8 -12 12 -4
8 8 -4 5 3 -7 15 -13 12 -23 26 -23 32 0 6 -5 7 -12 3 -7 -5 -8 -3 -3 6 5 8 1
18 -10 27 -11 7 -16 13 -12 13 4 0 -1 10 -13 22 -11 12 -20 28 -20 35 0 8 -4
11 -10 8 -5 -3 -10 1 -10 9 0 9 -4 16 -10 16 -5 0 -10 7 -10 15 0 8 -4 15 -10
15 -5 0 -10 7 -10 15 0 8 5 15 12 15 6 0 8 3 5 6 -4 4 -14 1 -22 -6 -9 -7 -15
-9 -14 -4 4 21 -2 35 -11 29 -5 -3 -10 3 -10 15 0 11 -7 23 -16 27 -8 3 -13
12 -10 19 3 8 2 14 -3 14 -4 0 -18 9 -31 20 -13 11 -17 20 -10 20 6 0 -2 14
-20 30 -18 17 -28 30 -24 30 5 0 1 5 -8 11 -10 5 -18 17 -18 25 0 8 -4 12 -10
9 -5 -3 -10 3 -10 15 0 12 -9 24 -22 30 -13 5 -20 9 -15 9 4 1 -2 10 -13 21
-12 12 -18 26 -14 33 4 7 4 9 -1 5 -12 -12 -35 12 -35 36 0 17 -2 18 -10 6 -8
-13 -10 -12 -10 3 0 10 -4 15 -10 12 -6 -4 -7 1 -3 11 4 11 3 15 -5 10 -6 -3
-14 -1 -18 5 -4 8 -3 9 4 5 16 -10 15 2 -2 19 -7 8 -16 11 -20 8 -3 -4 -6 -1
-6 5 0 6 -10 20 -22 32 -14 13 -17 20 -8 20 7 0 10 3 6 8 -7 7 -11 8 -38 11
-9 1 -8 4 2 11 10 7 11 10 2 10 -7 0 -17 11 -22 25 -5 14 -18 28 -27 32 -35
12 -54 35 -42 50 10 11 8 12 -6 6 -14 -5 -17 -3 -12 9 4 12 0 15 -16 12 -12
-2 -16 -2 -9 2 6 3 12 10 12 15 0 6 -4 8 -9 5 -13 -9 -34 21 -25 36 6 10 3 9
-9 -1 -17 -13 -23 -6 -18 22 0 4 -6 7 -15 7 -10 0 -14 5 -10 16 3 8 2 12 -4 9
-6 -3 -10 -1 -10 4 0 6 -8 11 -17 11 -15 0 -16 2 -3 10 13 8 12 10 -4 10 -14
0 -17 5 -13 21 4 17 3 19 -6 10 -16 -16 -27 -14 -20 6 4 11 3 14 -5 9 -8 -5
-12 1 -12 15 0 12 -3 20 -6 16 -8 -8 -34 18 -34 35 0 10 -3 9 -10 -2 -8 -13
-10 -12 -10 3 0 9 -4 17 -10 17 -5 0 -10 7 -10 15 0 14 -13 20 -34 16 -5 -1
-3 5 4 14 11 13 10 14 -5 8 -14 -5 -17 -3 -12 10 4 12 2 14 -10 10 -11 -4 -14
-2 -9 5 4 7 1 12 -9 12 -9 0 -13 5 -10 10 3 6 2 10 -3 10 -5 0 -18 8 -30 18
-17 15 -19 21 -9 31 10 11 8 12 -10 6 -17 -4 -23 -2 -23 9 0 8 -9 18 -20 21
-12 4 -20 15 -20 28 0 18 -2 19 -10 7 -8 -13 -10 -12 -10 3 0 9 -8 17 -17 18
-12 0 -14 2 -5 6 9 3 1 13 -23 27 -20 13 -38 27 -38 32 -1 5 -5 8 -9 6 -5 -1
-8 8 -9 20 0 13 -3 17 -6 11 -3 -10 -8 -10 -19 1 -8 8 -14 17 -14 21 0 8 -27
35 -35 35 -12 0 -34 27 -28 34 4 3 -3 6 -15 6 -20 0 -27 10 -23 33 0 4 -8 7
-20 7 -11 0 -17 5 -14 10 3 6 0 10 -8 10 -18 0 -51 36 -43 48 3 6 -1 13 -10
16 -8 3 -12 2 -9 -4 3 -6 1 -10 -4 -10 -6 0 -11 7 -11 15 0 8 -5 15 -11 15 -5
0 -7 5 -3 12 4 6 3 8 -4 4 -6 -3 -17 0 -25 8 -8 8 -18 12 -21 8 -4 -3 -4 2 0
12 5 14 4 17 -4 12 -7 -4 -12 -3 -12 3 0 5 -10 13 -21 16 -17 6 -19 9 -8 16
10 6 6 9 -13 9 -19 0 -28 5 -28 16 0 9 -5 12 -12 8 -7 -5 -9 -2 -5 9 4 12 2
14 -10 10 -12 -5 -14 -3 -8 7 6 10 4 12 -8 7 -12 -4 -14 -2 -10 10 4 10 2 14
-4 10 -6 -4 -13 0 -17 8 -3 8 -12 15 -21 15 -8 0 -15 7 -15 16 0 8 -4 13 -8
10 -5 -3 -14 4 -22 14 -8 10 -18 16 -24 13 -5 -4 -7 1 -3 11 4 9 3 14 -2 11
-5 -3 -12 -1 -16 5 -4 6 -10 8 -15 5 -5 -3 -23 12 -40 32 -18 21 -29 31 -24
23 7 -13 5 -13 -9 -1 -9 7 -14 18 -10 24 4 6 -2 8 -15 5 -12 -3 -20 -3 -19 1
2 6 -39 51 -48 51 -3 0 -10 0 -17 0 -6 0 -9 3 -5 6 9 10 -26 44 -46 44 -16 0
-17 3 -8 14 10 12 8 13 -8 9 -13 -3 -21 -1 -21 6 0 7 -4 9 -10 6 -5 -3 -10 1
-10 9 0 10 -6 13 -17 9 -9 -4 -14 -2 -10 3 3 6 2 16 -4 24 -7 13 -9 13 -9 0
-1 -12 -3 -11 -11 3 -6 9 -14 15 -20 12 -5 -4 -9 1 -9 10 0 9 -4 13 -10 10 -5
-3 -10 -1 -10 5 0 6 -4 8 -10 5 -5 -3 -10 1 -10 9 0 9 -3 15 -7 15 -20 -3 -34
2 -28 11 3 6 -2 10 -12 10 -22 1 -53 23 -53 39 0 7 -4 9 -10 6 -5 -3 -10 -1
-10 6 0 7 -3 9 -6 6 -4 -3 -15 5 -26 18 -11 14 -23 23 -28 20 -13 -8 -40 6
-40 22 0 8 -4 11 -10 8 -5 -3 -10 -1 -10 5 0 14 -61 50 -73 43 -6 -4 -8 1 -4
11 4 9 3 14 -2 11 -5 -3 -12 -1 -16 5 -4 6 -11 8 -16 5 -5 -4 -9 1 -9 9 0 10
-6 13 -15 10 -8 -4 -17 1 -21 10 -3 9 -10 13 -15 10 -5 -3 -9 0 -9 6 0 6 -4 8
-10 5 -5 -3 -10 -1 -10 5 0 6 -13 16 -30 21 -17 6 -30 18 -30 27 0 15 -2 15
-10 2 -5 -8 -10 -10 -10 -4 0 7 -9 14 -20 17 -11 3 -20 12 -20 21 0 19 -20 22
-20 4 0 -7 -5 -5 -11 5 -5 9 -17 17 -25 17 -8 0 -13 4 -10 9 3 5 -2 15 -11 22
-12 10 -14 10 -9 2 4 -7 2 -13 -3 -13 -6 0 -11 5 -11 10 0 6 -7 10 -15 10 -8
0 -15 5 -15 11 0 5 -5 7 -12 3 -7 -5 -9 -2 -5 9 4 11 2 14 -9 10 -7 -3 -14 0
-14 7 0 9 -4 9 -17 -1 -11 -10 -14 -10 -9 -1 4 7 2 12 -4 12 -6 0 -18 7 -27
16 -9 8 -22 13 -30 10 -8 -3 -12 -2 -9 3 8 12 -21 34 -34 26 -5 -3 -10 -1 -10
4 0 6 -7 11 -15 11 -8 0 -15 8 -16 18 0 14 -2 14 -9 -3 -7 -16 -9 -17 -9 -3
-1 9 -10 20 -21 23 -11 3 -20 14 -20 23 0 14 -2 15 -10 2 -9 -15 -25 -7 -25
13 0 5 -11 11 -23 12 -13 1 -28 8 -33 16 -7 12 -9 12 -9 0 0 -13 -2 -13 -12 0
-19 22 -53 47 -44 32 5 -9 2 -11 -8 -7 -9 3 -14 10 -11 14 6 10 -24 22 -36 14
-5 -3 -9 0 -9 5 0 6 -7 11 -16 11 -9 0 -24 8 -33 18 -9 9 -25 19 -36 20 -10 2
-25 11 -33 20 -7 10 -10 11 -7 3 5 -9 -1 -8 -19 4 -14 10 -26 13 -26 9 0 -5
-5 -1 -11 9 -5 9 -17 17 -25 17 -10 0 -12 5 -8 13 6 9 5 9 -7 0 -13 -10 -20
-9 -37 7 -12 11 -28 20 -37 20 -9 0 -13 5 -10 10 4 6 -7 10 -27 10 -25 0 -29
3 -18 10 12 8 11 10 -7 11 -13 1 -29 2 -35 3 -7 1 -21 10 -30 20 -13 14 -18
15 -18 5 0 -9 -3 -10 -8 -3 -4 5 -22 16 -39 23 -18 8 -33 18 -33 23 0 6 -9 8
-20 5 -14 -4 -20 0 -20 11 0 14 -2 14 -9 3 -5 -7 -10 -9 -12 -3 -2 6 -13 12
-24 14 -24 4 -45 20 -38 30 2 5 -8 3 -22 -2 -14 -5 -24 -6 -21 -2 2 4 1 14 -5
22 -7 13 -9 13 -9 0 0 -13 -1 -13 -10 0 -9 13 -10 13 -10 0 -1 -12 -3 -11 -11
3 -6 9 -14 15 -20 12 -5 -4 -9 -1 -9 5 0 6 -4 8 -10 5 -5 -3 -10 -1 -10 5 0 6
-4 8 -10 5 -5 -3 -10 -1 -10 5 0 6 -4 8 -10 5 -5 -3 -10 0 -10 7 0 9 -3 9 -10
-2 -6 -10 -10 -11 -10 -3 0 7 -3 12 -7 11 -17 -3 -62 15 -57 23 3 5 0 9 -5 9
-6 0 -11 -6 -11 -12 0 -9 -3 -9 -9 1 -9 13 -26 20 -58 23 -10 1 -10 4 0 16 10
13 9 14 -10 3 -20 -10 -23 -9 -23 6 0 14 -2 15 -9 5 -7 -11 -10 -11 -22 0 -8
7 -22 14 -31 14 -34 2 -38 4 -38 18 0 9 -8 12 -25 8 -16 -3 -25 0 -25 8 0 9
-4 9 -17 -1 -9 -8 -14 -9 -11 -4 4 6 -2 17 -14 24 -14 9 -18 9 -13 1 4 -7 -5
-4 -21 6 -22 14 -27 15 -19 3 9 -13 8 -13 -5 1 -8 8 -26 17 -40 19 -14 1 -28
8 -32 15 -5 7 -8 6 -8 -4 0 -9 -3 -11 -8 -5 -12 17 -60 38 -70 31 -6 -4 -15 2
-21 11 -6 10 -11 12 -11 6 0 -17 -20 -17 -20 0 0 8 -11 12 -30 11 -16 -1 -27
2 -24 7 5 8 -24 14 -53 10 -6 -1 -14 3 -18 9 -3 5 -15 10 -26 10 -10 0 -19 4
-19 9 0 4 -11 7 -25 6 -15 -2 -25 2 -25 9 0 7 -7 13 -15 13 -12 0 -12 -3 -3
-16 9 -12 7 -11 -8 2 -24 20 -38 22 -28 5 5 -9 3 -9 -9 1 -9 7 -14 18 -10 25
4 6 0 5 -9 -2 -14 -11 -21 -11 -40 1 -13 8 -31 13 -40 12 -10 -2 -18 2 -18 8
0 7 -5 5 -10 -3 -8 -13 -10 -12 -10 3 0 9 -5 17 -11 17 -5 0 -7 -4 -4 -10 3
-6 -1 -7 -9 -4 -9 3 -16 11 -16 18 0 6 -5 4 -10 -4 -8 -12 -10 -12 -10 5 0 17
-2 17 -10 5 -7 -11 -10 -11 -10 -2 0 7 -4 10 -10 7 -5 -3 -10 0 -10 7 0 9 -3
9 -10 -2 -6 -9 -10 -10 -10 -3 0 6 -9 10 -20 8 -11 -2 -20 1 -20 7 0 6 -9 8
-20 5 -11 -3 -20 0 -20 6 0 6 -3 7 -6 4 -4 -3 -16 -2 -27 4 -14 8 -18 8 -13 0
5 -8 0 -8 -17 -2 -14 6 -29 7 -33 3 -5 -4 -2 1 5 11 12 15 12 17 -3 11 -9 -3
-16 -10 -16 -16 0 -5 -7 -3 -15 6 -9 8 -23 12 -32 9 -12 -5 -14 -3 -8 8 7 12
6 12 -7 1 -13 -10 -17 -10 -21 1 -3 8 -16 13 -29 12 -12 -1 -26 3 -30 9 -5 8
-8 7 -8 -1 0 -7 -7 -10 -15 -7 -8 4 -12 11 -8 18 4 6 -2 4 -12 -4 -15 -12 -17
-12 -10 -1 6 11 4 13 -7 8 -9 -3 -27 1 -42 8 -15 8 -24 10 -21 5 4 -6 1 -10
-4 -10 -6 0 -11 6 -11 13 0 8 -3 8 -8 2 -9 -13 -31 -13 -40 0 -8 12 -27 13
-37 3 -10 -10 -34 2 -31 15 1 7 1 9 -1 5 -3 -5 -11 -8 -19 -8 -10 0 -12 5 -8
13 5 8 2 8 -9 -2 -9 -7 -17 -9 -17 -4 0 5 -24 10 -52 12 -29 1 -56 8 -60 14
-5 9 -8 8 -8 -3 -1 -12 -2 -12 -10 2 -6 10 -18 14 -30 11 -11 -3 -28 1 -37 8
-12 10 -14 10 -9 2 4 -7 2 -13 -3 -13 -6 0 -11 5 -11 12 0 9 -3 9 -12 0 -16
-16 -31 -15 -25 1 3 7 -3 13 -13 13 -10 0 -16 -4 -14 -8 10 -15 -9 -8 -23 10
-8 9 -12 11 -8 5 7 -15 -21 -18 -30 -3 -4 6 -15 6 -32 -1 -23 -8 -24 -8 -13 6
11 13 10 14 -6 9 -10 -4 -25 -12 -32 -18 -10 -7 -13 -6 -10 5 1 8 -1 14 -7 14
-5 0 -9 -3 -8 -6 1 -4 -6 -5 -17 -2 -11 3 -17 9 -14 14 3 5 1 9 -5 9 -5 0 -13
-5 -16 -10 -5 -8 -12 -7 -23 2 -13 11 -14 11 -7 -2 7 -12 4 -12 -17 2 -14 9
-28 14 -32 11 -8 -9 -65 -10 -60 -1 2 4 0 9 -6 13 -5 3 -10 -2 -11 -12 0 -16
-1 -16 -9 2 -5 11 -9 15 -9 8 -1 -12 -25 -12 -37 0 -4 4 -26 7 -49 7 -22 0
-47 6 -54 13 -10 8 -12 8 -7 0 3 -6 2 -14 -4 -18 -5 -3 -10 2 -10 12 0 15 -2
16 -10 3 -6 -10 -10 -11 -10 -2 0 6 -5 12 -11 12 -5 0 -7 -4 -4 -10 3 -5 1
-10 -4 -10 -6 0 -11 4 -11 9 0 4 -10 7 -22 7 -13 -1 -31 2 -42 7 -14 7 -16 6
-11 -4 6 -9 3 -10 -11 -5 -10 5 -41 9 -69 11 -27 1 -50 3 -50 4 0 2 -10 4 -22
5 -12 1 -20 -1 -17 -6 3 -4 1 -8 -5 -8 -5 0 -12 6 -14 13 -4 9 -6 8 -6 -2 -1
-11 -4 -11 -18 0 -9 8 -14 9 -10 3 3 -6 0 -11 -8 -11 -8 0 -12 4 -10 8 9 14
-23 17 -43 3 -17 -12 -22 -12 -32 1 -11 13 -14 13 -26 -2 -9 -11 -13 -13 -12
-4 2 7 -5 15 -14 16 -11 2 -15 -2 -12 -13 5 -14 4 -14 -6 1 -6 9 -16 15 -21
11 -5 -3 -17 0 -26 8 -10 7 -14 8 -10 1 9 -14 -70 -13 -92 1 -10 6 -12 6 -7
-2 8 -13 -20 -12 -41 1 -6 4 -14 3 -17 -2 -7 -10 -25 -9 -43 2 -7 5 -13 5 -13
0 0 -4 -31 -8 -70 -8 -40 0 -70 4 -70 10 0 6 -4 4 -9 -3 -4 -8 -12 -14 -16
-14 -4 0 -12 6 -16 14 -5 7 -9 8 -9 3 0 -11 -61 -11 -79 -1 -5 4 -12 2 -15 -2
-6 -10 -92 -9 -102 1 -4 4 -13 2 -20 -4 -7 -6 -19 -9 -26 -6 -7 2 -21 0 -32
-5 -14 -8 -16 -7 -11 2 5 8 3 11 -6 8 -8 -3 -13 -10 -12 -16 2 -6 -4 -9 -12
-6 -8 4 -15 10 -15 16 0 5 5 6 12 2 7 -5 8 -3 3 6 -6 10 -13 7 -27 -11 -11
-13 -17 -18 -13 -11 4 7 0 12 -10 12 -9 0 -13 5 -10 10 9 15 -1 12 -15 -5z
m7725 -3366 c11 -16 1 -19 -13 -3 -7 8 -8 14 -3 14 5 0 13 -5 16 -11z m-16620
-4978 c3 -5 2 -12 -3 -15 -5 -3 -9 1 -9 9 0 17 3 19 12 6z m18789 -1457 c3 -8
2 -12 -4 -9 -6 3 -10 10 -10 16 0 14 7 11 14 -7z m-4 -194 c0 -5 -5 -10 -11
-10 -5 0 -7 5 -4 10 3 6 8 10 11 10 2 0 4 -4 4 -10z m-18655 -1208 c-3 -3 -11
0 -18 7 -9 10 -8 11 6 5 10 -3 15 -9 12 -12z m220 -872 c-3 -5 -11 -10 -16
-10 -6 0 -7 5 -4 10 3 6 11 10 16 10 6 0 7 -4 4 -10z m205 -580 c0 -5 -2 -10
-4 -10 -3 0 -8 5 -11 10 -3 6 -1 10 4 10 6 0 11 -4 11 -10z m17010 -1344 c0
-3 -4 -8 -10 -11 -5 -3 -10 -1 -10 4 0 6 5 11 10 11 6 0 10 -2 10 -4z m-16225
-244 c-3 -3 -11 0 -18 7 -9 10 -8 11 6 5 10 -3 15 -9 12 -12z m506 -744 c25
-28 24 -36 -2 -12 -12 10 -24 18 -27 16 -4 -2 -8 1 -10 7 -6 19 20 12 39 -11z
m5049 -3384 c0 -8 -19 -13 -24 -6 -3 5 1 9 9 9 8 0 15 -2 15 -3z m1040 -218
c0 -2 -7 -7 -16 -10 -8 -3 -12 -2 -9 4 6 10 25 14 25 6z m2920 -6 c0 -5 -2
-10 -4 -10 -3 0 -8 5 -11 10 -3 6 -1 10 4 10 6 0 11 -4 11 -10z m-2315 -76 c9
-9 14 -18 11 -21 -2 -3 -14 5 -25 16 -12 12 -17 21 -12 21 5 0 17 -7 26 -16z
m452 -29 c0 -8 -4 -15 -9 -15 -10 0 -11 14 -1 23 9 10 10 9 10 -8z m63 1 c0
-3 -4 -8 -10 -11 -5 -3 -10 -1 -10 4 0 6 5 11 10 11 6 0 10 -2 10 -4z"/>
<path d="M10050 19021 c0 -6 4 -13 10 -16 6 -3 7 1 4 9 -7 18 -14 21 -14 7z"/>
<path d="M6755 18601 c-3 -5 -2 -12 3 -15 5 -3 9 1 9 9 0 17 -3 19 -12 6z"/>
<path d="M5886 18268 c3 -5 10 -6 15 -3 13 9 11 12 -6 12 -8 0 -12 -4 -9 -9z"/>
<path d="M13730 18086 c0 -2 8 -10 18 -17 15 -13 16 -12 3 4 -13 16 -21 21
-21 13z"/>
<path d="M14286 17802 c-3 -5 1 -9 9 -9 8 0 12 4 9 9 -3 4 -7 8 -9 8 -2 0 -6
-4 -9 -8z"/>
<path d="M14966 17358 c3 -5 10 -6 15 -3 13 9 11 12 -6 12 -8 0 -12 -4 -9 -9z"/>
<path d="M15080 17286 c0 -2 8 -10 18 -17 15 -13 16 -12 3 4 -13 16 -21 21
-21 13z"/>
<path d="M15554 16939 c-3 -6 2 -18 12 -27 17 -16 17 -16 5 0 -7 9 -10 22 -6
28 3 5 4 10 1 10 -3 0 -8 -5 -12 -11z"/>
<path d="M15982 16554 c10 -10 20 -16 22 -13 3 3 -5 11 -17 18 -21 13 -21 12
-5 -5z"/>
<path d="M16800 15706 c0 -2 7 -9 15 -16 13 -11 14 -10 9 4 -5 14 -24 23 -24
12z"/>
<path d="M17150 15336 c0 -2 8 -10 18 -17 15 -13 16 -12 3 4 -13 16 -21 21
-21 13z"/>
<path d="M1616 14658 c3 -5 10 -6 15 -3 13 9 11 12 -6 12 -8 0 -12 -4 -9 -9z"/>
<path d="M18760 11919 c0 -5 5 -7 10 -4 6 3 10 8 10 11 0 2 -4 4 -10 4 -5 0
-10 -5 -10 -11z"/>
<path d="M18909 11253 c-13 -16 -12 -17 4 -4 16 13 21 21 13 21 -2 0 -10 -8
-17 -17z"/>
<path d="M18945 10920 c-3 -6 1 -7 9 -4 18 7 21 14 7 14 -6 0 -13 -4 -16 -10z"/>
<path d="M221 10747 c-8 -10 -7 -14 2 -14 8 0 14 6 14 14 0 7 -1 13 -2 13 -2
0 -8 -6 -14 -13z"/>
<path d="M19030 10421 c0 -6 4 -13 10 -16 6 -3 7 1 4 9 -7 18 -14 21 -14 7z"/>
<path d="M165 10200 c10 -11 20 -20 23 -20 3 0 -3 9 -13 20 -10 11 -20 20 -23
20 -3 0 3 -9 13 -20z"/>
<path d="M19079 10098 c-5 -18 -6 -38 -1 -34 7 8 12 36 6 36 -2 0 -4 -1 -5 -2z"/>
<path d="M19070 9716 c0 -2 8 -10 18 -17 15 -13 16 -12 3 4 -13 16 -21 21 -21
13z"/>
<path d="M19070 9476 c0 -2 8 -10 18 -17 15 -13 16 -12 3 4 -13 16 -21 21 -21
13z"/>
<path d="M19020 9156 c0 -2 7 -7 16 -10 8 -3 12 -2 9 4 -6 10 -25 14 -25 6z"/>
<path d="M170 9096 c0 -2 7 -7 16 -10 8 -3 12 -2 9 4 -6 10 -25 14 -25 6z"/>
<path d="M19027 8679 c7 -7 15 -10 18 -7 3 3 -2 9 -12 12 -14 6 -15 5 -6 -5z"/>
<path d="M18976 8342 c-3 -5 1 -9 9 -9 8 0 12 4 9 9 -3 4 -7 8 -9 8 -2 0 -6
-4 -9 -8z"/>
<path d="M294 8084 c9 -8 13 -20 10 -26 -4 -7 -2 -8 4 -4 14 8 -2 46 -19 46
-6 0 -3 -7 5 -16z"/>
<path d="M290 7979 c0 -5 5 -7 10 -4 6 3 10 8 10 11 0 2 -4 4 -10 4 -5 0 -10
-5 -10 -11z"/>
<path d="M335 7780 c3 -5 8 -10 11 -10 2 0 4 5 4 10 0 6 -5 10 -11 10 -5 0 -7
-4 -4 -10z"/>
<path d="M18846 7782 c-3 -5 1 -9 9 -9 8 0 15 4 15 9 0 4 -4 8 -9 8 -6 0 -12
-4 -15 -8z"/>
<path d="M18873 7645 c0 -8 4 -12 9 -9 5 3 6 10 3 15 -9 13 -12 11 -12 -6z"/>
<path d="M18810 7580 c0 -5 5 -10 11 -10 5 0 7 5 4 10 -3 6 -8 10 -11 10 -2 0
-4 -4 -4 -10z"/>
<path d="M377 7555 c-4 -8 -3 -16 1 -19 4 -3 9 4 9 15 2 23 -3 25 -10 4z"/>
<path d="M353 7515 c0 -8 4 -12 9 -9 5 3 6 10 3 15 -9 13 -12 11 -12 -6z"/>
<path d="M433 7305 c0 -8 4 -12 9 -9 5 3 6 10 3 15 -9 13 -12 11 -12 -6z"/>
<path d="M471 7193 c7 -12 15 -20 18 -17 3 2 -3 12 -13 22 -17 16 -18 16 -5
-5z"/>
<path d="M18699 7108 c-5 -18 -6 -38 -1 -34 7 8 12 36 6 36 -2 0 -4 -1 -5 -2z"/>
<path d="M570 6819 c0 -5 5 -7 10 -4 6 3 10 8 10 11 0 2 -4 4 -10 4 -5 0 -10
-5 -10 -11z"/>
<path d="M636 6693 c-6 -14 -5 -15 5 -6 7 7 10 15 7 18 -3 3 -9 -2 -12 -12z"/>
<path d="M18555 6640 c-3 -5 -1 -10 4 -10 6 0 11 5 11 10 0 6 -2 10 -4 10 -3
0 -8 -4 -11 -10z"/>
<path d="M655 6560 c-3 -5 -1 -10 4 -10 6 0 11 5 11 10 0 6 -2 10 -4 10 -3 0
-8 -4 -11 -10z"/>
<path d="M18494 6436 c1 -8 5 -18 8 -22 4 -3 5 1 4 10 -1 8 -5 18 -8 22 -4 3
-5 -1 -4 -10z"/>
<path d="M735 6420 c3 -5 11 -10 16 -10 6 0 7 5 4 10 -3 6 -11 10 -16 10 -6 0
-7 -4 -4 -10z"/>
<path d="M675 6400 c-3 -5 -1 -10 4 -10 6 0 11 5 11 10 0 6 -2 10 -4 10 -3 0
-8 -4 -11 -10z"/>
<path d="M18491 6367 c2 -1 13 -9 24 -17 19 -14 19 -14 6 3 -7 9 -18 17 -24
17 -6 0 -8 -1 -6 -3z"/>
<path d="M786 6317 c3 -10 9 -15 12 -12 3 3 0 11 -7 18 -10 9 -11 8 -5 -6z"/>
<path d="M18436 6318 c3 -5 10 -6 15 -3 13 9 11 12 -6 12 -8 0 -12 -4 -9 -9z"/>
<path d="M820 6200 c0 -5 5 -10 11 -10 5 0 7 -5 3 -12 -4 -7 -3 -8 5 -4 9 6 9
11 0 22 -14 17 -19 18 -19 4z"/>
<path d="M853 6035 c0 -8 4 -12 9 -9 5 3 6 10 3 15 -9 13 -12 11 -12 -6z"/>
<path d="M18295 5940 c-3 -5 -1 -10 4 -10 6 0 11 5 11 10 0 6 -2 10 -4 10 -3
0 -8 -4 -11 -10z"/>
<path d="M18270 5900 c0 -5 5 -10 11 -10 5 0 7 5 4 10 -3 6 -8 10 -11 10 -2 0
-4 -4 -4 -10z"/>
<path d="M975 5780 c3 -5 8 -10 11 -10 2 0 4 5 4 10 0 6 -5 10 -11 10 -5 0 -7
-4 -4 -10z"/>
<path d="M1013 5645 c0 -8 4 -12 9 -9 5 3 6 10 3 15 -9 13 -12 11 -12 -6z"/>
<path d="M1065 5580 c-3 -6 1 -7 9 -4 18 7 21 14 7 14 -6 0 -13 -4 -16 -10z"/>
<path d="M18150 5562 c0 -5 7 -9 15 -9 8 0 12 4 9 9 -3 4 -9 8 -15 8 -5 0 -9
-4 -9 -8z"/>
<path d="M1126 5525 c19 -29 21 -30 21 -11 0 7 -9 19 -19 25 -18 11 -18 11 -2
-14z"/>
<path d="M1136 5413 c-6 -14 -5 -15 5 -6 7 7 10 15 7 18 -3 3 -9 -2 -12 -12z"/>
<path d="M18056 5378 c3 -5 10 -6 15 -3 13 9 11 12 -6 12 -8 0 -12 -4 -9 -9z"/>
<path d="M1220 5319 c0 -5 5 -7 10 -4 6 3 10 8 10 11 0 2 -4 4 -10 4 -5 0 -10
-5 -10 -11z"/>
<path d="M17987 5319 c7 -7 15 -10 18 -7 3 3 -2 9 -12 12 -14 6 -15 5 -6 -5z"/>
<path d="M17944 5289 c-4 -7 -3 -9 4 -5 5 3 13 0 15 -6 4 -9 6 -10 6 -1 1 17
-16 25 -25 12z"/>
<path d="M1327 5119 c7 -7 15 -10 18 -7 3 3 -2 9 -12 12 -14 6 -15 5 -6 -5z"/>
<path d="M17826 5038 c3 -5 10 -6 15 -3 13 9 11 12 -6 12 -8 0 -12 -4 -9 -9z"/>
<path d="M17856 5022 c-3 -4 4 -9 15 -9 23 -2 25 3 4 10 -8 4 -16 3 -19 -1z"/>
<path d="M1370 4979 c0 -5 5 -7 10 -4 6 3 10 8 10 11 0 2 -4 4 -10 4 -5 0 -10
-5 -10 -11z"/>
<path d="M1435 4941 c-3 -5 0 -13 6 -17 7 -4 9 -3 5 4 -3 5 0 13 6 15 9 4 10
6 1 6 -6 1 -14 -3 -18 -8z"/>
<path d="M17840 4940 c-9 -6 -10 -10 -3 -10 6 0 15 5 18 10 8 12 4 12 -15 0z"/>
<path d="M1470 4841 c0 -6 4 -13 10 -16 6 -3 7 1 4 9 -7 18 -14 21 -14 7z"/>
<path d="M1558 4743 c7 -3 16 -2 19 1 4 3 -2 6 -13 5 -11 0 -14 -3 -6 -6z"/>
<path d="M1564 4722 c4 -3 14 -7 22 -8 9 -1 13 0 10 4 -4 3 -14 7 -22 8 -9 1
-13 0 -10 -4z"/>
<path d="M1565 4600 c-3 -6 1 -7 9 -4 18 7 21 14 7 14 -6 0 -13 -4 -16 -10z"/>
<path d="M17550 4596 c7 -7 13 -7 20 0 6 6 3 10 -10 10 -13 0 -16 -4 -10 -10z"/>
<path d="M1699 4547 c6 -8 7 -18 3 -22 -4 -5 -1 -5 6 -1 10 6 10 11 1 22 -6 8
-14 14 -16 14 -3 0 0 -6 6 -13z"/>
<path d="M1666 4502 c-3 -5 1 -9 9 -9 8 0 12 4 9 9 -3 4 -7 8 -9 8 -2 0 -6 -4
-9 -8z"/>
<path d="M1706 4498 c3 -4 9 -8 15 -8 5 0 9 4 9 8 0 5 -7 9 -15 9 -8 0 -12 -4
-9 -9z"/>
<path d="M17500 4500 c-9 -6 -10 -10 -3 -10 6 0 15 5 18 10 8 12 4 12 -15 0z"/>
<path d="M17530 4500 c0 -5 5 -10 11 -10 5 0 7 5 4 10 -3 6 -8 10 -11 10 -2 0
-4 -4 -4 -10z"/>
<path d="M17455 4460 c3 -5 8 -10 11 -10 2 0 4 5 4 10 0 6 -5 10 -11 10 -5 0
-7 -4 -4 -10z"/>
<path d="M17436 4418 c3 -5 10 -6 15 -3 13 9 11 12 -6 12 -8 0 -12 -4 -9 -9z"/>
<path d="M1720 4380 c-12 -7 -10 -9 7 -7 12 0 19 5 17 9 -6 10 -6 10 -24 -2z"/>
<path d="M17416 4302 c-3 -5 1 -9 9 -9 8 0 12 4 9 9 -3 4 -7 8 -9 8 -2 0 -6
-4 -9 -8z"/>
<path d="M1839 4298 c-5 -18 -6 -38 -1 -34 7 8 12 36 6 36 -2 0 -4 -1 -5 -2z"/>
<path d="M1875 4251 c-3 -5 -2 -12 3 -15 5 -3 9 1 9 9 0 17 -3 19 -12 6z"/>
<path d="M17387 4239 c7 -7 15 -10 18 -7 3 3 -2 9 -12 12 -14 6 -15 5 -6 -5z"/>
<path d="M17210 4059 c0 -5 5 -7 10 -4 6 3 10 8 10 11 0 2 -4 4 -10 4 -5 0
-10 -5 -10 -11z"/>
<path d="M17230 4036 c0 -2 8 -10 18 -17 15 -13 16 -12 3 4 -13 16 -21 21 -21
13z"/>
<path d="M17133 3945 c0 -8 4 -12 9 -9 5 3 6 10 3 15 -9 13 -12 11 -12 -6z"/>
<path d="M17090 3899 c0 -5 5 -7 10 -4 6 3 10 8 10 11 0 2 -4 4 -10 4 -5 0
-10 -5 -10 -11z"/>
<path d="M17033 3849 c-2 -23 3 -25 10 -4 4 8 3 16 -1 19 -4 3 -9 -4 -9 -15z"/>
<path d="M16975 3740 c3 -5 8 -10 11 -10 2 0 4 5 4 10 0 6 -5 10 -11 10 -5 0
-7 -4 -4 -10z"/>
<path d="M2276 3713 c-6 -14 -5 -15 5 -6 7 7 10 15 7 18 -3 3 -9 -2 -12 -12z"/>
<path d="M16913 3713 c0 -9 4 -10 14 -2 7 6 13 12 13 14 0 1 -6 2 -13 2 -8 0
-14 -6 -14 -14z"/>
<path d="M16946 3678 c3 -4 9 -8 15 -8 5 0 9 4 9 8 0 5 -7 9 -15 9 -8 0 -12
-4 -9 -9z"/>
<path d="M2364 3644 c9 -8 16 -20 16 -26 0 -6 3 -9 6 -6 8 9 -14 48 -27 48 -6
0 -3 -7 5 -16z"/>
<path d="M2330 3641 c0 -6 4 -13 10 -16 6 -3 7 1 4 9 -7 18 -14 21 -14 7z"/>
<path d="M16835 3619 c-3 -4 2 -6 10 -5 21 3 28 13 10 13 -9 0 -18 -4 -20 -8z"/>
<path d="M2431 3564 c0 -11 3 -14 6 -6 3 7 2 16 -1 19 -3 4 -6 -2 -5 -13z"/>
<path d="M2450 3551 c0 -5 7 -12 16 -15 14 -5 15 -4 4 9 -14 17 -20 19 -20 6z"/>
<path d="M16810 3539 c0 -5 5 -7 10 -4 6 3 10 8 10 11 0 2 -4 4 -10 4 -5 0
-10 -5 -10 -11z"/>
<path d="M16753 3515 c0 -8 4 -12 9 -9 5 3 6 10 3 15 -9 13 -12 11 -12 -6z"/>
<path d="M2456 3467 c3 -10 9 -15 12 -12 3 3 0 11 -7 18 -10 9 -11 8 -5 -6z"/>
<path d="M2538 3453 c6 -2 9 -10 6 -15 -4 -7 -2 -8 5 -4 13 9 5 26 -12 25 -9
0 -8 -2 1 -6z"/>
<path d="M16645 3440 c-3 -5 -1 -10 4 -10 6 0 11 5 11 10 0 6 -2 10 -4 10 -3
0 -8 -4 -11 -10z"/>
<path d="M16605 3390 c-3 -6 1 -7 9 -4 18 7 21 14 7 14 -6 0 -13 -4 -16 -10z"/>
<path d="M2540 3366 c0 -2 8 -10 18 -17 15 -13 16 -12 3 4 -13 16 -21 21 -21
13z"/>
<path d="M2590 3299 c0 -5 5 -7 10 -4 6 3 10 8 10 11 0 2 -4 4 -10 4 -5 0 -10
-5 -10 -11z"/>
<path d="M2697 3235 c-4 -8 -3 -16 1 -19 4 -3 9 4 9 15 2 23 -3 25 -10 4z"/>
<path d="M16530 3220 c0 -5 5 -10 11 -10 5 0 7 5 4 10 -3 6 -8 10 -11 10 -2 0
-4 -4 -4 -10z"/>
<path d="M16495 3191 c-3 -5 -2 -12 3 -15 5 -3 9 1 9 9 0 17 -3 19 -12 6z"/>
<path d="M2710 3179 c0 -5 5 -7 10 -4 6 3 10 8 10 11 0 2 -4 4 -10 4 -5 0 -10
-5 -10 -11z"/>
<path d="M2795 3160 c3 -5 8 -10 11 -10 2 0 4 5 4 10 0 6 -5 10 -11 10 -5 0
-7 -4 -4 -10z"/>
<path d="M2736 3133 c-6 -14 -5 -15 5 -6 7 7 10 15 7 18 -3 3 -9 -2 -12 -12z"/>
<path d="M16410 3100 c0 -5 5 -10 11 -10 5 0 7 5 4 10 -3 6 -8 10 -11 10 -2 0
-4 -4 -4 -10z"/>
<path d="M16314 3089 c-4 -7 -3 -9 4 -5 5 3 13 0 15 -6 4 -9 6 -10 6 -1 1 17
-16 25 -25 12z"/>
<path d="M2854 3016 c1 -8 5 -18 8 -22 4 -3 5 1 4 10 -1 8 -5 18 -8 22 -4 3
-5 -1 -4 -10z"/>
<path d="M16335 3020 c3 -5 8 -10 11 -10 2 0 4 5 4 10 0 6 -5 10 -11 10 -5 0
-7 -4 -4 -10z"/>
<path d="M2896 2981 c-9 -15 23 -36 35 -24 8 8 6 11 -7 10 -11 -1 -18 4 -16
11 2 14 -4 16 -12 3z"/>
<path d="M16250 2966 c0 -2 7 -7 16 -10 8 -3 12 -2 9 4 -6 10 -25 14 -25 6z"/>
<path d="M16316 2953 c-6 -14 -5 -15 5 -6 7 7 10 15 7 18 -3 3 -9 -2 -12 -12z"/>
<path d="M16195 2941 c-3 -5 -2 -12 3 -15 5 -3 9 1 9 9 0 17 -3 19 -12 6z"/>
<path d="M2995 2921 c-3 -5 -2 -12 3 -15 5 -3 9 1 9 9 0 17 -3 19 -12 6z"/>
<path d="M16215 2900 c3 -5 8 -10 11 -10 2 0 4 5 4 10 0 6 -5 10 -11 10 -5 0
-7 -4 -4 -10z"/>
<path d="M3016 2855 c-9 -26 -7 -32 5 -12 6 10 9 21 6 23 -2 3 -7 -2 -11 -11z"/>
<path d="M3080 2855 c-7 -8 -17 -12 -23 -8 -6 4 -7 1 -3 -6 6 -9 13 -8 27 5
10 9 19 19 19 21 0 7 -8 2 -20 -12z"/>
<path d="M3147 2829 c7 -7 15 -10 18 -7 3 3 -2 9 -12 12 -14 6 -15 5 -6 -5z"/>
<path d="M16021 2807 c-8 -11 -6 -18 12 -33 22 -19 22 -19 5 2 -14 16 -15 23
-6 32 7 7 9 12 6 12 -3 0 -11 -6 -17 -13z"/>
<path d="M3206 2718 c3 -5 10 -6 15 -3 13 9 11 12 -6 12 -8 0 -12 -4 -9 -9z"/>
<path d="M15915 2700 c3 -5 8 -10 11 -10 2 0 4 5 4 10 0 6 -5 10 -11 10 -5 0
-7 -4 -4 -10z"/>
<path d="M3225 2640 c-3 -6 1 -7 9 -4 18 7 21 14 7 14 -6 0 -13 -4 -16 -10z"/>
<path d="M3326 2642 c-3 -5 1 -9 9 -9 8 0 12 4 9 9 -3 4 -7 8 -9 8 -2 0 -6 -4
-9 -8z"/>
<path d="M3355 2611 c-3 -5 -2 -12 3 -15 5 -3 9 1 9 9 0 17 -3 19 -12 6z"/>
<path d="M15834 2594 c1 -8 4 -15 7 -16 2 -2 3 -1 2 1 -2 2 2 9 7 16 7 8 5 12
-4 12 -8 0 -13 -6 -12 -13z"/>
<path d="M3335 2580 c-3 -5 -1 -10 4 -10 6 0 11 5 11 10 0 6 -2 10 -4 10 -3 0
-8 -4 -11 -10z"/>
<path d="M15865 2560 c-3 -6 1 -7 9 -4 18 7 21 14 7 14 -6 0 -13 -4 -16 -10z"/>
<path d="M3440 2500 c-9 -6 -10 -10 -3 -10 6 0 15 5 18 10 8 12 4 12 -15 0z"/>
<path d="M15719 2508 c-5 -18 -6 -38 -1 -34 7 8 12 36 6 36 -2 0 -4 -1 -5 -2z"/>
<path d="M3473 2487 c0 -8 6 -14 14 -14 9 0 10 4 2 14 -6 7 -12 13 -14 13 -1
0 -2 -6 -2 -13z"/>
<path d="M3510 2486 c0 -2 7 -7 16 -10 8 -3 12 -2 9 4 -6 10 -25 14 -25 6z"/>
<path d="M15746 2482 c-3 -5 1 -9 9 -9 8 0 12 4 9 9 -3 4 -7 8 -9 8 -2 0 -6
-4 -9 -8z"/>
<path d="M15620 2440 c0 -5 7 -7 15 -4 8 4 15 8 15 10 0 2 -7 4 -15 4 -8 0
-15 -4 -15 -10z"/>
<path d="M15696 2422 c-2 -4 -1 -14 4 -22 7 -11 9 -9 7 8 -1 24 -3 26 -11 14z"/>
<path d="M15660 2380 c8 -5 20 -10 25 -10 6 0 3 5 -5 10 -8 5 -19 10 -25 10
-5 0 -3 -5 5 -10z"/>
<path d="M3587 2359 c7 -7 15 -10 18 -7 3 3 -2 9 -12 12 -14 6 -15 5 -6 -5z"/>
<path d="M15610 2360 c0 -5 5 -10 11 -10 5 0 7 5 4 10 -3 6 -8 10 -11 10 -2 0
-4 -4 -4 -10z"/>
<path d="M15495 2329 c-4 -6 -5 -12 -2 -15 2 -3 7 2 10 11 7 17 1 20 -8 4z"/>
<path d="M15435 2299 c-4 -6 -4 -13 -1 -16 3 -4 6 -1 6 6 0 7 5 9 12 5 7 -4 8
-3 4 4 -9 15 -13 15 -21 1z"/>
<path d="M3759 2268 c-5 -18 -6 -38 -1 -34 7 8 12 36 6 36 -2 0 -4 -1 -5 -2z"/>
<path d="M15430 2256 c7 -7 13 -7 20 0 6 6 3 10 -10 10 -13 0 -16 -4 -10 -10z"/>
<path d="M15480 2260 c-8 -5 -10 -10 -5 -10 6 0 17 5 25 10 8 5 11 10 5 10 -5
0 -17 -5 -25 -10z"/>
<path d="M3789 2243 c-13 -16 -12 -17 4 -4 16 13 21 21 13 21 -2 0 -10 -8 -17
-17z"/>
<path d="M3850 2219 c0 -5 4 -8 9 -4 5 3 17 -2 25 -11 9 -8 16 -11 16 -5 0 6
-9 15 -19 21 -25 13 -31 13 -31 -1z"/>
<path d="M15346 2179 c2 -4 13 -7 24 -6 23 2 17 10 -10 12 -10 1 -17 -2 -14
-6z"/>
<path d="M3935 2129 c-4 -6 -5 -12 -2 -15 2 -3 7 2 10 11 7 17 1 20 -8 4z"/>
<path d="M3961 2116 c-9 -11 -9 -16 1 -22 7 -4 10 -4 6 1 -4 4 -3 14 3 22 6 7
9 13 6 13 -2 0 -10 -6 -16 -14z"/>
<path d="M15233 2105 c0 -8 4 -12 9 -9 5 3 6 10 3 15 -9 13 -12 11 -12 -6z"/>
<path d="M15159 2068 c-5 -18 -6 -38 -1 -34 7 8 12 36 6 36 -2 0 -4 -1 -5 -2z"/>
<path d="M15055 1999 c-3 -4 2 -6 10 -5 21 3 28 13 10 13 -9 0 -18 -4 -20 -8z"/>
<path d="M4095 1980 c3 -5 8 -10 11 -10 2 0 4 5 4 10 0 6 -5 10 -11 10 -5 0
-7 -4 -4 -10z"/>
<path d="M4176 1962 c-3 -5 1 -9 9 -9 8 0 12 4 9 9 -3 4 -7 8 -9 8 -2 0 -6 -4
-9 -8z"/>
<path d="M4210 1945 c0 -5 5 -17 10 -25 5 -8 10 -10 10 -5 0 6 -5 17 -10 25
-5 8 -10 11 -10 5z"/>
<path d="M14986 1938 c3 -4 9 -8 15 -8 5 0 9 4 9 8 0 5 -7 9 -15 9 -8 0 -12
-4 -9 -9z"/>
<path d="M4276 1927 c3 -10 9 -15 12 -12 3 3 0 11 -7 18 -10 9 -11 8 -5 -6z"/>
<path d="M14923 1928 c-17 -22 -26 -45 -10 -26 8 10 18 14 22 10 5 -4 5 -2 2
5 -4 6 -1 14 5 16 8 4 9 6 2 6 -6 1 -16 -5 -21 -11z"/>
<path d="M4253 1915 c0 -8 4 -12 9 -9 5 3 6 10 3 15 -9 13 -12 11 -12 -6z"/>
<path d="M4303 1907 c0 -8 6 -14 14 -14 9 0 10 4 2 14 -6 7 -12 13 -14 13 -1
0 -2 -6 -2 -13z"/>
<path d="M14926 1885 c-11 -8 -15 -15 -9 -15 6 0 16 7 23 15 16 19 11 19 -14
0z"/>
<path d="M4346 1877 c3 -10 9 -15 12 -12 3 3 0 11 -7 18 -10 9 -11 8 -5 -6z"/>
<path d="M4310 1876 c0 -2 8 -10 18 -17 15 -13 16 -12 3 4 -13 16 -21 21 -21
13z"/>
<path d="M14825 1871 c-3 -5 -2 -12 3 -15 5 -3 9 1 9 9 0 17 -3 19 -12 6z"/>
<path d="M4356 1833 c-6 -14 -5 -15 5 -6 7 7 10 15 7 18 -3 3 -9 -2 -12 -12z"/>
<path d="M14890 1839 c0 -5 5 -7 10 -4 6 3 10 8 10 11 0 2 -4 4 -10 4 -5 0
-10 -5 -10 -11z"/>
<path d="M4376 1778 c3 -5 10 -6 15 -3 13 9 11 12 -6 12 -8 0 -12 -4 -9 -9z"/>
<path d="M14806 1778 c3 -5 10 -6 15 -3 13 9 11 12 -6 12 -8 0 -12 -4 -9 -9z"/>
<path d="M4520 1774 c0 -17 27 -37 34 -25 4 5 2 12 -4 16 -5 3 -10 3 -10 -2 0
-4 -5 -1 -10 7 -5 8 -10 10 -10 4z"/>
<path d="M14730 1777 c0 -2 6 -10 14 -16 11 -9 16 -9 22 1 4 7 4 10 -1 6 -4
-4 -14 -3 -22 3 -7 6 -13 9 -13 6z"/>
<path d="M14755 1731 c-3 -5 -2 -12 3 -15 5 -3 9 1 9 9 0 17 -3 19 -12 6z"/>
<path d="M4535 1720 c-2 -3 5 -6 15 -7 11 -1 22 2 24 5 3 4 -4 8 -15 8 -11 0
-22 -3 -24 -6z"/>
<path d="M14670 1726 c0 -2 7 -7 16 -10 8 -3 12 -2 9 4 -6 10 -25 14 -25 6z"/>
<path d="M14715 1720 c3 -5 8 -10 11 -10 2 0 4 5 4 10 0 6 -5 10 -11 10 -5 0
-7 -4 -4 -10z"/>
<path d="M4591 1707 c-8 -10 -7 -14 2 -14 8 0 14 6 14 14 0 7 -1 13 -2 13 -2
0 -8 -6 -14 -13z"/>
<path d="M14640 1695 c-7 -9 -11 -17 -9 -20 3 -2 10 5 17 15 14 24 10 26 -8 5z"/>
<path d="M4686 1642 c-3 -5 1 -9 9 -9 8 0 12 4 9 9 -3 4 -7 8 -9 8 -2 0 -6 -4
-9 -8z"/>
<path d="M4615 1619 c-3 -4 2 -6 10 -5 21 3 28 13 10 13 -9 0 -18 -4 -20 -8z"/>
<path d="M14419 1618 c-5 -18 -6 -38 -1 -34 7 8 12 36 6 36 -2 0 -4 -1 -5 -2z"/>
<path d="M14493 1605 c0 -8 4 -12 9 -9 5 3 6 10 3 15 -9 13 -12 11 -12 -6z"/>
<path d="M4746 1558 c3 -5 10 -6 15 -3 13 9 11 12 -6 12 -8 0 -12 -4 -9 -9z"/>
<path d="M14379 1553 c-13 -16 -12 -17 4 -4 16 13 21 21 13 21 -2 0 -10 -8
-17 -17z"/>
<path d="M14308 1523 c6 -3 10 -9 6 -14 -8 -14 2 -11 14 4 8 10 6 13 -11 14
-12 0 -16 -1 -9 -4z"/>
<path d="M14380 1526 c0 -2 8 -10 18 -17 15 -13 16 -12 3 4 -13 16 -21 21 -21
13z"/>
<path d="M4815 1511 c-3 -5 -2 -12 3 -15 5 -3 9 1 9 9 0 17 -3 19 -12 6z"/>
<path d="M4853 1505 c0 -8 4 -12 9 -9 5 3 6 10 3 15 -9 13 -12 11 -12 -6z"/>
<path d="M4915 1480 c3 -5 8 -10 11 -10 2 0 4 5 4 10 0 6 -5 10 -11 10 -5 0
-7 -4 -4 -10z"/>
<path d="M5016 1457 c3 -10 9 -15 12 -12 3 3 0 11 -7 18 -10 9 -11 8 -5 -6z"/>
<path d="M4947 1439 c7 -7 15 -10 18 -7 3 3 -2 9 -12 12 -14 6 -15 5 -6 -5z"/>
<path d="M14210 1419 c0 -5 5 -7 10 -4 6 3 10 8 10 11 0 2 -4 4 -10 4 -5 0
-10 -5 -10 -11z"/>
<path d="M5093 1407 c0 -7 9 -14 20 -14 11 -1 18 -1 16 0 -2 2 -11 8 -20 15
-12 9 -16 9 -16 -1z"/>
<path d="M5055 1380 c3 -5 8 -10 11 -10 2 0 4 5 4 10 0 6 -5 10 -11 10 -5 0
-7 -4 -4 -10z"/>
<path d="M14066 1382 c-3 -5 1 -9 9 -9 8 0 12 4 9 9 -3 4 -7 8 -9 8 -2 0 -6
-4 -9 -8z"/>
<path d="M5306 1305 c-11 -8 -15 -15 -9 -15 7 0 15 5 18 10 4 6 11 7 17 4 7
-4 8 -2 4 4 -9 14 -7 15 -30 -3z"/>
<path d="M5186 1302 c-3 -5 1 -9 9 -9 8 0 12 4 9 9 -3 4 -7 8 -9 8 -2 0 -6 -4
-9 -8z"/>
<path d="M5400 1259 c-7 -11 -10 -23 -7 -25 2 -2 9 7 15 21 14 30 7 33 -8 4z"/>
<path d="M13800 1255 c-7 -9 -11 -17 -9 -20 3 -2 10 5 17 15 14 24 10 26 -8 5z"/>
<path d="M5310 1239 c0 -5 5 -7 10 -4 6 3 10 8 10 11 0 2 -4 4 -10 4 -5 0 -10
-5 -10 -11z"/>
<path d="M5356 1238 c3 -5 10 -6 15 -3 13 9 11 12 -6 12 -8 0 -12 -4 -9 -9z"/>
<path d="M5415 1241 c-3 -5 -2 -12 3 -15 5 -3 9 1 9 9 0 17 -3 19 -12 6z"/>
<path d="M13755 1242 c3 -3 -1 -12 -7 -21 -8 -10 -4 -9 10 3 26 23 26 23 7 23
-8 0 -13 -3 -10 -5z"/>
<path d="M13646 1198 c3 -4 9 -8 15 -8 5 0 9 4 9 8 0 5 -7 9 -15 9 -8 0 -12
-4 -9 -9z"/>
<path d="M13770 1199 c0 -5 5 -7 10 -4 6 3 10 8 10 11 0 2 -4 4 -10 4 -5 0
-10 -5 -10 -11z"/>
<path d="M5505 1179 c-3 -4 2 -6 10 -5 21 3 28 13 10 13 -9 0 -18 -4 -20 -8z"/>
<path d="M5553 1170 c-1 -11 2 -20 7 -20 4 0 7 7 6 15 -3 23 -12 26 -13 5z"/>
<path d="M13690 1159 c0 -5 5 -7 10 -4 6 3 10 8 10 11 0 2 -4 4 -10 4 -5 0
-10 -5 -10 -11z"/>
<path d="M5599 1158 c-6 -20 -6 -39 0 -42 4 -3 7 6 7 20 0 20 -4 32 -7 22z"/>
<path d="M5544 1122 c4 -3 14 -7 22 -8 9 -1 13 0 10 4 -4 3 -14 7 -22 8 -9 1
-13 0 -10 -4z"/>
<path d="M5620 1126 c0 -2 8 -10 18 -17 15 -13 16 -12 3 4 -13 16 -21 21 -21
13z"/>
<path d="M13490 1121 c0 -6 4 -13 10 -16 6 -3 7 1 4 9 -7 18 -14 21 -14 7z"/>
<path d="M13613 1105 c0 -8 4 -12 9 -9 5 3 6 10 3 15 -9 13 -12 11 -12 -6z"/>
<path d="M5718 1103 c7 -3 16 -2 19 1 4 3 -2 6 -13 5 -11 0 -14 -3 -6 -6z"/>
<path d="M5715 1081 c-3 -5 -2 -12 3 -15 5 -3 9 1 9 9 0 17 -3 19 -12 6z"/>
<path d="M5675 1069 c-4 -6 -5 -12 -2 -15 2 -3 7 2 10 11 7 17 1 20 -8 4z"/>
<path d="M5856 1062 c-2 -4 -1 -14 4 -22 7 -11 9 -9 7 8 -1 24 -3 26 -11 14z"/>
<path d="M13335 1059 c-4 -6 -5 -12 -2 -15 2 -3 7 2 10 11 7 17 1 20 -8 4z"/>
<path d="M13430 1058 c0 -4 4 -8 9 -8 6 0 12 4 15 8 3 5 -1 9 -9 9 -8 0 -15
-4 -15 -9z"/>
<path d="M13379 1058 c-5 -18 -6 -38 -1 -34 7 8 12 36 6 36 -2 0 -4 -1 -5 -2z"/>
<path d="M13516 1047 c3 -10 9 -15 12 -12 3 3 0 11 -7 18 -10 9 -11 8 -5 -6z"/>
<path d="M5770 1039 c0 -5 5 -7 10 -4 6 3 10 8 10 11 0 2 -4 4 -10 4 -5 0 -10
-5 -10 -11z"/>
<path d="M13630 1040 c0 -5 5 -10 11 -10 5 0 7 5 4 10 -3 6 -8 10 -11 10 -2 0
-4 -4 -4 -10z"/>
<path d="M5815 1031 c-3 -5 -2 -12 3 -15 5 -3 9 1 9 9 0 17 -3 19 -12 6z"/>
<path d="M13435 1020 c3 -5 8 -10 11 -10 2 0 4 5 4 10 0 6 -5 10 -11 10 -5 0
-7 -4 -4 -10z"/>
<path d="M5931 1007 c-8 -10 -7 -14 2 -14 8 0 14 6 14 14 0 7 -1 13 -2 13 -2
0 -8 -6 -14 -13z"/>
<path d="M13196 998 c5 -7 2 -9 -8 -6 -8 4 -15 0 -15 -7 0 -10 5 -11 19 -4 16
9 17 29 2 29 -3 0 -2 -5 2 -12z"/>
<path d="M13310 999 c0 -5 5 -7 10 -4 6 3 10 8 10 11 0 2 -4 4 -10 4 -5 0 -10
-5 -10 -11z"/>
<path d="M5995 971 c-3 -5 -2 -12 3 -15 5 -3 9 1 9 9 0 17 -3 19 -12 6z"/>
<path d="M13256 967 c3 -10 9 -15 12 -12 3 3 0 11 -7 18 -10 9 -11 8 -5 -6z"/>
<path d="M13296 958 c3 -5 10 -6 15 -3 13 9 11 12 -6 12 -8 0 -12 -4 -9 -9z"/>
<path d="M5935 940 c-3 -5 -1 -10 4 -10 6 0 11 5 11 10 0 6 -2 10 -4 10 -3 0
-8 -4 -11 -10z"/>
<path d="M6074 936 c1 -8 5 -18 8 -22 4 -3 5 1 4 10 -1 8 -5 18 -8 22 -4 3 -5
-1 -4 -10z"/>
<path d="M13093 927 c0 -16 34 -20 43 -5 4 7 2 8 -5 4 -6 -4 -18 -3 -25 3 -9
8 -13 7 -13 -2z"/>
<path d="M6113 916 c-3 -6 -3 -8 2 -4 4 4 13 3 20 -2 8 -7 12 -5 12 3 0 16
-25 18 -34 3z"/>
<path d="M13233 915 c0 -8 4 -12 9 -9 5 3 6 10 3 15 -9 13 -12 11 -12 -6z"/>
<path d="M12955 909 c-4 -6 -4 -13 -1 -16 3 -4 6 -1 6 6 0 7 5 9 12 5 7 -4 8
-3 4 4 -9 15 -13 15 -21 1z"/>
<path d="M12993 896 c1 -6 -3 -10 -9 -9 -6 1 -11 -5 -11 -13 0 -10 7 -9 24 8
27 25 27 25 9 25 -8 0 -14 -5 -13 -11z"/>
<path d="M6237 871 c-10 -14 -10 -14 4 -4 9 7 18 10 21 7 3 -3 8 -1 12 4 9 16
-24 9 -37 -7z"/>
<path d="M6310 876 c0 -2 7 -9 15 -16 13 -11 14 -10 9 4 -5 14 -24 23 -24 12z"/>
<path d="M6255 851 c-3 -5 -2 -12 3 -15 5 -3 9 1 9 9 0 17 -3 19 -12 6z"/>
<path d="M12853 833 c0 -6 5 -9 11 -5 6 4 14 7 18 7 19 0 14 11 -6 11 -12 0
-23 -6 -23 -13z"/>
<path d="M12910 839 c0 -5 5 -7 10 -4 6 3 10 8 10 11 0 2 -4 4 -10 4 -5 0 -10
-5 -10 -11z"/>
<path d="M12940 846 c0 -2 8 -10 18 -17 15 -13 16 -12 3 4 -13 16 -21 21 -21
13z"/>
<path d="M13000 840 c-9 -6 -10 -10 -3 -10 6 0 15 5 18 10 8 12 4 12 -15 0z"/>
<path d="M6429 823 c-13 -16 -12 -17 4 -4 9 7 17 15 17 17 0 8 -8 3 -21 -13z"/>
<path d="M12786 822 c-3 -5 1 -9 9 -9 8 0 15 4 15 9 0 4 -4 8 -9 8 -6 0 -12
-4 -15 -8z"/>
<path d="M6513 790 c5 -29 13 -33 13 -5 0 14 -4 25 -8 25 -4 0 -7 -9 -5 -20z"/>
<path d="M6540 796 c0 -2 9 -6 20 -9 11 -3 18 -1 14 4 -5 9 -34 13 -34 5z"/>
<path d="M12620 789 c-13 -9 -13 -10 1 -6 9 3 23 0 30 -6 11 -10 11 -9 0 6 -7
9 -14 17 -15 17 0 0 -8 -5 -16 -11z"/>
<path d="M6370 779 c0 -5 5 -7 10 -4 6 3 10 8 10 11 0 2 -4 4 -10 4 -5 0 -10
-5 -10 -11z"/>
<path d="M6565 760 c10 -11 20 -20 23 -20 3 0 -3 9 -13 20 -10 11 -20 20 -23
20 -3 0 3 -9 13 -20z"/>
<path d="M12670 776 c0 -2 8 -10 18 -17 15 -13 16 -12 3 4 -13 16 -21 21 -21
13z"/>
<path d="M12780 766 c0 -2 8 -10 18 -17 15 -13 16 -12 3 4 -13 16 -21 21 -21
13z"/>
<path d="M6495 751 c-3 -5 -2 -12 3 -15 5 -3 9 1 9 9 0 17 -3 19 -12 6z"/>
<path d="M6630 742 c0 -5 7 -9 15 -9 8 0 12 4 9 9 -3 4 -9 8 -15 8 -5 0 -9 -4
-9 -8z"/>
<path d="M12630 736 c7 -7 13 -7 20 0 6 6 3 10 -10 10 -13 0 -16 -4 -10 -10z"/>
<path d="M12736 738 c3 -4 11 -5 19 -1 21 7 19 12 -4 10 -11 0 -18 -5 -15 -9z"/>
<path d="M6570 720 c0 -5 5 -10 11 -10 5 0 7 5 4 10 -3 6 -8 10 -11 10 -2 0
-4 -4 -4 -10z"/>
<path d="M12590 721 c0 -6 4 -13 10 -16 6 -3 7 1 4 9 -7 18 -14 21 -14 7z"/>
<path d="M6753 693 c0 -9 4 -10 14 -2 7 6 13 12 13 14 0 1 -6 2 -13 2 -8 0
-14 -6 -14 -14z"/>
<path d="M6790 706 c0 -2 7 -7 16 -10 8 -3 12 -2 9 4 -6 10 -25 14 -25 6z"/>
<path d="M12466 698 c3 -4 9 -8 15 -8 5 0 9 4 9 8 0 5 -7 9 -15 9 -8 0 -12 -4
-9 -9z"/>
<path d="M6845 680 c21 -24 26 -25 19 -6 -3 8 -13 17 -22 21 -13 5 -13 2 3
-15z"/>
<path d="M6911 667 c-13 -21 -12 -21 5 -5 10 10 16 20 13 22 -3 3 -11 -5 -18
-17z"/>
<path d="M12349 677 c6 -8 7 -18 3 -22 -4 -5 -1 -5 6 -1 10 6 10 11 1 22 -6 8
-14 14 -16 14 -3 0 0 -6 6 -13z"/>
<path d="M6971 664 c0 -11 3 -14 6 -6 3 7 2 16 -1 19 -3 4 -6 -2 -5 -13z"/>
<path d="M6695 660 c-3 -5 -1 -10 4 -10 6 0 11 5 11 10 0 6 -2 10 -4 10 -3 0
-8 -4 -11 -10z"/>
<path d="M12385 660 c-3 -6 1 -7 9 -4 18 7 21 14 7 14 -6 0 -13 -4 -16 -10z"/>
<path d="M6926 642 c-3 -5 1 -9 9 -9 8 0 15 4 15 9 0 4 -4 8 -9 8 -6 0 -12 -4
-15 -8z"/>
<path d="M7039 613 c-13 -16 -12 -17 4 -4 16 13 21 21 13 21 -2 0 -10 -8 -17
-17z"/>
<path d="M7073 610 c-1 -11 2 -22 6 -24 4 -3 7 4 6 14 -2 27 -10 33 -12 10z"/>
<path d="M12180 625 c0 -2 6 -8 13 -14 10 -8 14 -7 14 2 0 8 -6 14 -14 14 -7
0 -13 -1 -13 -2z"/>
<path d="M12226 618 c3 -5 10 -6 15 -3 13 9 11 12 -6 12 -8 0 -12 -4 -9 -9z"/>
<path d="M12091 607 c-8 -10 -7 -14 2 -14 8 0 14 6 14 14 0 7 -1 13 -2 13 -2
0 -8 -6 -14 -13z"/>
<path d="M12159 618 c-5 -18 -6 -38 -1 -34 7 8 12 36 6 36 -2 0 -4 -1 -5 -2z"/>
<path d="M6950 599 c0 -5 5 -7 10 -4 6 3 10 8 10 11 0 2 -4 4 -10 4 -5 0 -10
-5 -10 -11z"/>
<path d="M7120 606 c0 -2 8 -10 18 -17 15 -13 16 -12 3 4 -13 16 -21 21 -21
13z"/>
<path d="M7215 569 c-4 -6 -5 -12 -2 -15 2 -3 7 2 10 11 7 17 1 20 -8 4z"/>
<path d="M7234 558 c-4 -7 -4 -10 1 -6 4 4 15 2 24 -5 14 -11 14 -10 2 6 -16
20 -18 21 -27 5z"/>
<path d="M11940 560 c-9 -6 -10 -10 -3 -10 6 0 15 5 18 10 8 12 4 12 -15 0z"/>
<path d="M7135 540 c3 -5 8 -10 11 -10 2 0 4 5 4 10 0 6 -5 10 -11 10 -5 0 -7
-4 -4 -10z"/>
<path d="M11833 533 c0 -9 4 -10 14 -2 7 6 13 12 13 14 0 1 -6 2 -13 2 -8 0
-14 -6 -14 -14z"/>
<path d="M11873 527 c-1 -11 -1 -18 0 -16 2 2 8 11 15 20 9 12 9 16 -1 16 -7
0 -14 -9 -14 -20z"/>
<path d="M7516 532 c-3 -5 1 -9 9 -9 8 0 12 4 9 9 -3 4 -7 8 -9 8 -2 0 -6 -4
-9 -8z"/>
<path d="M11722 524 c10 -10 20 -16 22 -13 3 3 -5 11 -17 18 -21 13 -21 12 -5
-5z"/>
<path d="M7233 513 c0 -9 4 -10 14 -2 7 6 13 12 13 14 0 1 -6 2 -13 2 -8 0
-14 -6 -14 -14z"/>
<path d="M7355 520 c3 -5 8 -10 11 -10 2 0 4 5 4 10 0 6 -5 10 -11 10 -5 0 -7
-4 -4 -10z"/>
<path d="M7387 517 c3 -4 8 -6 11 -3 3 3 10 1 17 -4 8 -7 12 -6 12 3 0 7 -11
13 -23 13 -12 0 -20 -4 -17 -9z"/>
<path d="M11690 521 c0 -6 4 -13 10 -16 6 -3 7 1 4 9 -7 18 -14 21 -14 7z"/>
<path d="M11915 520 c3 -5 8 -10 11 -10 2 0 4 5 4 10 0 6 -5 10 -11 10 -5 0
-7 -4 -4 -10z"/>
<path d="M11950 525 c0 -5 5 -17 10 -25 5 -8 10 -10 10 -5 0 6 -5 17 -10 25
-5 8 -10 11 -10 5z"/>
<path d="M7295 500 c3 -5 8 -10 11 -10 2 0 4 5 4 10 0 6 -5 10 -11 10 -5 0 -7
-4 -4 -10z"/>
<path d="M7340 506 c0 -2 8 -10 18 -17 15 -13 16 -12 3 4 -13 16 -21 21 -21
13z"/>
<path d="M7479 493 c-13 -16 -12 -17 4 -4 9 7 17 15 17 17 0 8 -8 3 -21 -13z"/>
<path d="M7514 484 c1 -13 5 -26 8 -29 4 -4 5 1 4 12 -2 10 0 23 5 29 5 6 4
11 -5 11 -7 0 -12 -10 -12 -23z"/>
<path d="M7573 495 c0 -8 4 -12 9 -9 5 3 6 10 3 15 -9 13 -12 11 -12 -6z"/>
<path d="M7550 481 c0 -6 4 -13 10 -16 6 -3 7 1 4 9 -7 18 -14 21 -14 7z"/>
<path d="M11653 473 c0 -9 4 -10 12 -3 7 5 15 7 18 3 4 -3 7 -1 7 5 0 6 -8 10
-18 9 -10 0 -19 -7 -19 -14z"/>
<path d="M11706 478 c3 -4 9 -8 15 -8 5 0 9 4 9 8 0 5 -7 9 -15 9 -8 0 -12 -4
-9 -9z"/>
<path d="M11750 481 c0 -6 4 -12 8 -15 5 -3 9 1 9 9 0 8 -4 15 -9 15 -4 0 -8
-4 -8 -9z"/>
<path d="M7586 462 c-2 -4 4 -8 14 -8 10 0 16 4 14 8 -3 4 -9 8 -14 8 -5 0
-11 -4 -14 -8z"/>
<path d="M11344 443 c-13 -20 -13 -25 -2 -16 8 7 17 11 20 8 3 -3 11 3 19 12
13 17 13 17 -5 3 -18 -14 -19 -13 -13 3 9 25 2 21 -19 -10z"/>
<path d="M7662 445 c15 -16 20 -17 30 -6 11 11 10 13 0 7 -7 -4 -21 -2 -30 5
-15 12 -15 11 0 -6z"/>
<path d="M11495 450 c-4 -6 -10 -8 -14 -6 -4 3 -8 -1 -8 -9 0 -13 4 -12 19 2
18 16 22 23 14 23 -3 0 -8 -5 -11 -10z"/>
<path d="M7791 447 c2 -2 11 -8 20 -15 12 -9 16 -9 16 1 0 7 -9 14 -20 14 -11
1 -18 1 -16 0z"/>
<path d="M7935 441 c-3 -5 -2 -12 3 -15 5 -3 9 1 9 9 0 17 -3 19 -12 6z"/>
<path d="M8110 411 c0 -7 -4 -10 -8 -7 -5 3 -9 -2 -9 -10 0 -13 2 -13 16 0 8
9 12 19 8 22 -4 4 -7 2 -7 -5z"/>
<path d="M11295 409 c-4 -6 -5 -12 -2 -15 2 -3 7 2 10 11 7 17 1 20 -8 4z"/>
<path d="M7670 399 c0 -5 5 -7 10 -4 6 3 10 8 10 11 0 2 -4 4 -10 4 -5 0 -10
-5 -10 -11z"/>
<path d="M7820 406 c0 -2 8 -10 18 -17 15 -13 16 -12 3 4 -13 16 -21 21 -21
13z"/>
<path d="M7926 398 c3 -5 10 -6 15 -3 13 9 11 12 -6 12 -8 0 -12 -4 -9 -9z"/>
<path d="M11516 398 c3 -5 10 -6 15 -3 13 9 11 12 -6 12 -8 0 -12 -4 -9 -9z"/>
<path d="M11154 386 c1 -8 5 -18 8 -22 4 -3 5 1 4 10 -1 8 -5 18 -8 22 -4 3
-5 -1 -4 -10z"/>
<path d="M8120 380 c-9 -6 -10 -10 -3 -10 6 0 15 5 18 10 8 12 4 12 -15 0z"/>
<path d="M11040 380 c-9 -6 -10 -10 -3 -10 6 0 15 5 18 10 8 12 4 12 -15 0z"/>
<path d="M11106 378 c3 -4 9 -8 15 -8 5 0 9 4 9 8 0 5 -7 9 -15 9 -8 0 -12 -4
-9 -9z"/>
<path d="M11415 381 c-3 -5 -2 -12 3 -15 5 -3 9 1 9 9 0 17 -3 19 -12 6z"/>
<path d="M10975 370 c-4 -6 -12 -7 -18 -4 -7 4 -9 4 -5 -1 4 -4 2 -15 -4 -24
-10 -12 -7 -12 8 2 11 9 23 15 26 12 2 -3 5 2 5 10 0 18 -3 19 -12 5z"/>
<path d="M11316 367 c3 -10 9 -15 12 -12 3 3 0 11 -7 18 -10 9 -11 8 -5 -6z"/>
<path d="M8196 353 c-6 -14 -5 -15 5 -6 7 7 10 15 7 18 -3 3 -9 -2 -12 -12z"/>
<path d="M8246 358 c3 -5 10 -6 15 -3 13 9 11 12 -6 12 -8 0 -12 -4 -9 -9z"/>
<path d="M10701 354 c0 -11 3 -14 6 -6 3 7 2 16 -1 19 -3 4 -6 -2 -5 -13z"/>
<path d="M10731 354 c0 -11 3 -14 6 -6 3 7 2 16 -1 19 -3 4 -6 -2 -5 -13z"/>
<path d="M10913 351 c0 -11 5 -18 9 -15 4 3 5 11 1 19 -7 21 -12 19 -10 -4z"/>
<path d="M8005 340 c-3 -6 1 -7 9 -4 18 7 21 14 7 14 -6 0 -13 -4 -16 -10z"/>
<path d="M10525 339 c-3 -4 2 -6 10 -5 21 3 28 13 10 13 -9 0 -18 -4 -20 -8z"/>
<path d="M10791 333 c7 -12 15 -20 18 -17 3 2 -3 12 -13 22 -17 16 -18 16 -5
-5z"/>
<path d="M11050 339 c0 -5 5 -7 10 -4 6 3 10 8 10 11 0 2 -4 4 -10 4 -5 0 -10
-5 -10 -11z"/>
<path d="M11213 335 c0 -8 4 -12 9 -9 5 3 6 10 3 15 -9 13 -12 11 -12 -6z"/>
<path d="M8635 331 c-3 -5 -2 -12 3 -15 5 -3 9 1 9 9 0 17 -3 19 -12 6z"/>
<path d="M10486 328 c3 -5 10 -6 15 -3 13 9 11 12 -6 12 -8 0 -12 -4 -9 -9z"/>
<path d="M8386 322 c-3 -5 1 -9 9 -9 8 0 15 4 15 9 0 4 -4 8 -9 8 -6 0 -12 -4
-15 -8z"/>
<path d="M8500 326 c0 -2 8 -10 18 -17 15 -13 16 -12 3 4 -13 16 -21 21 -21
13z"/>
<path d="M10566 319 c4 -8 30 -6 38 2 3 3 -5 5 -19 5 -13 0 -22 -3 -19 -7z"/>
<path d="M10670 318 c0 -4 4 -8 9 -8 6 0 12 4 15 8 3 5 -1 9 -9 9 -8 0 -15 -4
-15 -9z"/>
<path d="M10736 318 c3 -5 10 -6 15 -3 13 9 11 12 -6 12 -8 0 -12 -4 -9 -9z"/>
<path d="M11147 319 c7 -7 15 -10 18 -7 3 3 -2 9 -12 12 -14 6 -15 5 -6 -5z"/>
<path d="M8714 306 c1 -8 5 -18 8 -22 4 -3 5 1 4 10 -1 8 -5 18 -8 22 -4 3 -5
-1 -4 -10z"/>
<path d="M9975 310 c-3 -5 -1 -10 4 -10 6 0 11 5 11 10 0 6 -2 10 -4 10 -3 0
-8 -4 -11 -10z"/>
<path d="M10227 307 c-3 -8 0 -14 7 -14 7 0 13 6 13 14 0 17 -13 17 -20 0z"/>
<path d="M10713 305 c0 -8 4 -12 9 -9 5 3 6 10 3 15 -9 13 -12 11 -12 -6z"/>
<path d="M8270 299 c0 -5 5 -7 10 -4 6 3 10 8 10 11 0 2 -4 4 -10 4 -5 0 -10
-5 -10 -11z"/>
<path d="M8627 299 c7 -7 15 -10 18 -7 3 3 -2 9 -12 12 -14 6 -15 5 -6 -5z"/>
<path d="M8740 306 c0 -2 8 -10 18 -17 15 -13 16 -12 3 4 -13 16 -21 21 -21
13z"/>
<path d="M10770 299 c0 -5 5 -7 10 -4 6 3 10 8 10 11 0 2 -4 4 -10 4 -5 0 -10
-5 -10 -11z"/>
<path d="M10935 301 c-3 -5 -2 -12 3 -15 5 -3 9 1 9 9 0 17 -3 19 -12 6z"/>
<path d="M8595 291 c-3 -5 -2 -12 3 -15 5 -3 9 1 9 9 0 17 -3 19 -12 6z"/>
<path d="M8973 287 c0 -8 6 -14 14 -14 9 0 10 4 2 14 -6 7 -12 13 -14 13 -1 0
-2 -6 -2 -13z"/>
<path d="M10456 287 c3 -10 9 -15 12 -12 3 3 0 11 -7 18 -10 9 -11 8 -5 -6z"/>
<path d="M10873 285 c0 -8 4 -12 9 -9 5 3 6 10 3 15 -9 13 -12 11 -12 -6z"/>
<path d="M8870 285 c0 -7 30 -13 34 -7 3 4 -4 9 -15 9 -10 1 -19 0 -19 -2z"/>
<path d="M9113 275 c0 -8 4 -12 9 -9 4 3 8 9 8 15 0 5 -4 9 -8 9 -5 0 -9 -7
-9 -15z"/>
<path d="M9146 279 c2 -4 13 -7 24 -6 23 2 17 10 -10 12 -10 1 -17 -2 -14 -6z"/>
<path d="M9336 273 c-6 -14 -5 -15 5 -6 7 7 10 15 7 18 -3 3 -9 -2 -12 -12z"/>
<path d="M9360 286 c0 -2 8 -10 18 -17 15 -13 16 -12 3 4 -13 16 -21 21 -21
13z"/>
<path d="M9493 273 c0 -9 4 -10 14 -2 10 9 18 8 31 -2 15 -13 16 -12 4 3 -15
19 -49 20 -49 1z"/>
<path d="M9760 280 c-9 -6 -10 -10 -3 -10 6 0 15 5 18 10 8 12 4 12 -15 0z"/>
<path d="M9800 286 c0 -2 8 -10 18 -17 15 -13 16 -12 3 4 -13 16 -21 21 -21
13z"/>
<path d="M9880 285 c0 -2 6 -8 13 -14 10 -8 14 -7 14 2 0 8 -6 14 -14 14 -7 0
-13 -1 -13 -2z"/>
<path d="M10390 279 c0 -5 5 -7 10 -4 6 3 10 8 10 11 0 2 -4 4 -10 4 -5 0 -10
-5 -10 -11z"/>
<path d="M9435 269 c-4 -6 -5 -12 -2 -15 2 -3 7 2 10 11 7 17 1 20 -8 4z"/>
<path d="M9630 276 c0 -2 8 -10 18 -17 15 -13 16 -12 3 4 -13 16 -21 21 -21
13z"/>
<path d="M10079 253 c-13 -16 -12 -17 4 -4 9 7 17 15 17 17 0 8 -8 3 -21 -13z"/>
<path d="M10515 259 c-3 -4 2 -6 10 -5 21 3 28 13 10 13 -9 0 -18 -4 -20 -8z"/>
<path d="M9299 258 c-5 -9 -5 -48 -1 -43 6 6 11 45 5 45 -2 0 -4 -1 -4 -2z"/>
<path d="M9455 249 c-4 -6 -5 -12 -2 -15 2 -3 7 2 10 11 7 17 1 20 -8 4z"/>
<path d="M9036 242 c-3 -5 1 -9 9 -9 8 0 12 4 9 9 -3 4 -7 8 -9 8 -2 0 -6 -4
-9 -8z"/>
<path d="M9130 239 c0 -5 5 -7 10 -4 6 3 10 8 10 11 0 2 -4 4 -10 4 -5 0 -10
-5 -10 -11z"/>
<path d="M9255 240 c3 -5 8 -10 11 -10 2 0 4 5 4 10 0 6 -5 10 -11 10 -5 0 -7
-4 -4 -10z"/>
<path d="M10156 238 c3 -5 10 -6 15 -3 13 9 11 12 -6 12 -8 0 -12 -4 -9 -9z"/>
<path d="M9413 225 c0 -8 4 -12 9 -9 5 3 6 10 3 15 -9 13 -12 11 -12 -6z"/>
<path d="M9330 219 c0 -5 5 -7 10 -4 6 3 10 8 10 11 0 2 -4 4 -10 4 -5 0 -10
-5 -10 -11z"/>
<path d="M9610 219 c0 -5 5 -7 10 -4 6 3 10 8 10 11 0 2 -4 4 -10 4 -5 0 -10
-5 -10 -11z"/>
<path d="M9735 220 c3 -5 8 -10 11 -10 2 0 4 5 4 10 0 6 -5 10 -11 10 -5 0 -7
-4 -4 -10z"/>
<path d="M9770 220 c0 -5 5 -10 11 -10 5 0 7 5 4 10 -3 6 -8 10 -11 10 -2 0
-4 -4 -4 -10z"/>
<path d="M9890 219 c0 -5 5 -7 10 -4 6 3 10 8 10 11 0 2 -4 4 -10 4 -5 0 -10
-5 -10 -11z"/>
<path d="M10055 221 c-3 -5 -2 -12 3 -15 5 -3 9 1 9 9 0 17 -3 19 -12 6z"/>
</g>
</svg>
